<svg width="1174.55498046875px" height="335.0099609375px" xmlns="http://www.w3.org/2000/svg" viewBox="-337.277490234375 -92.50498046875 1174.55498046875 335.0099609375" style="background: none;" preserveAspectRatio="xMidYMid"><defs><linearGradient id="editing-outline-gradient" x1="0.20762829527726323" x2="0.7923717047227368" y1="-0.45630475596303544" y2="1.4563047559630355"><stop offset="0" stop-color="#434587"></stop><stop offset="1" stop-color="#87434d"></stop></linearGradient><filter id="editing-outline" x="-100%" y="-100%" width="300%" height="300%"><feMorphology in="SourceGraphic" operator="dilate" radius="5" result="outline"></feMorphology><feComposite operator="out" in="outline" in2="SourceAlpha"></feComposite></filter></defs><g filter="url(#editing-outline)"><g transform="translate(-175.56499767303467, 128.5099983215332)"><path d="M28.52-86.44L28.52-86.44L28.52-86.44Q31.02-87.91 36.09-89.23L36.09-89.23L36.09-89.23Q41.16-90.55 46.30-90.55L46.30-90.55L46.30-90.55Q53.65-90.55 59.31-88.42L59.31-88.42L59.31-88.42Q64.97-86.29 66.59-81.73L66.59-81.73L66.59-81.73Q69.24-74.09 72.32-63.94L72.32-63.94L72.32-63.94Q75.41-53.80 78.50-43.00L78.50-43.00L78.50-43.00Q81.58-32.19 84.52-21.68L84.52-21.68L84.52-21.68Q87.46-11.17 89.67-3.09L89.67-3.09L89.67-3.09Q87.91-1.03 84.38 0.22L84.38 0.22L84.38 0.22Q80.85 1.47 76.00 1.47L76.00 1.47L76.00 1.47Q72.47 1.47 70.05 0.88L70.05 0.88L70.05 0.88Q67.62 0.29 66.08-0.88L66.08-0.88L66.08-0.88Q64.53-2.06 63.58-3.97L63.58-3.97L63.58-3.97Q62.62-5.88 61.89-8.38L61.89-8.38L59.24-18.52L32.63-18.52L32.63-18.52Q31.46-14.11 30.28-9.41L30.28-9.41L30.28-9.41Q29.11-4.70 27.93-0.29L27.93-0.29L27.93-0.29Q25.87 0.44 23.59 0.96L23.59 0.96L23.59 0.96Q21.31 1.47 18.08 1.47L18.08 1.47L18.08 1.47Q10.58 1.47 6.98-1.10L6.98-1.10L6.98-1.10Q3.38-3.67 3.38-8.23L3.38-8.23L3.38-8.23Q3.38-10.29 3.97-12.35L3.97-12.35L3.97-12.35Q4.56-14.41 5.29-17.20L5.29-17.20L5.29-17.20Q6.32-21.17 8.16-27.05L8.16-27.05L8.16-27.05Q10.00-32.93 12.20-39.76L12.20-39.76L12.20-39.76Q14.41-46.60 16.90-53.80L16.90-53.80L16.90-53.80Q19.40-61.00 21.61-67.40L21.61-67.40L21.61-67.40Q23.81-73.79 25.65-78.79L25.65-78.79L25.65-78.79Q27.49-83.79 28.52-86.44ZM47.04-67.47L46.16-67.47L46.16-67.47Q44.10-61.30 41.53-53.73L41.53-53.73L41.53-53.73Q38.95-46.16 36.90-38.37L36.90-38.37L55.13-38.37L55.13-38.37Q53.07-46.30 50.94-53.88L50.94-53.88L50.94-53.88Q48.80-61.45 47.04-67.47L47.04-67.47ZM99.22-91.29L99.22-91.29L99.22-91.29Q99.22-96.87 102.97-100.69L102.97-100.69L102.97-100.69Q106.72-104.52 112.90-104.52L112.90-104.52L112.90-104.52Q119.07-104.52 122.82-100.69L122.82-100.69L122.82-100.69Q126.57-96.87 126.57-91.29L126.57-91.29L126.57-91.29Q126.57-85.70 122.82-81.88L122.82-81.88L122.82-81.88Q119.07-78.06 112.90-78.06L112.90-78.06L112.90-78.06Q106.72-78.06 102.97-81.88L102.97-81.88L102.97-81.88Q99.22-85.70 99.22-91.29ZM125.39-59.98L125.39-0.15L125.39-0.15Q123.77 0.15 120.61 0.66L120.61 0.66L120.61 0.66Q117.45 1.18 114.22 1.18L114.22 1.18L114.22 1.18Q110.98 1.18 108.41 0.73L108.41 0.73L108.41 0.73Q105.84 0.29 104.08-1.03L104.08-1.03L104.08-1.03Q102.31-2.35 101.36-4.63L101.36-4.63L101.36-4.63Q100.40-6.91 100.40-10.58L100.40-10.58L100.40-70.41L100.40-70.41Q102.02-70.71 105.18-71.22L105.18-71.22L105.18-71.22Q108.34-71.74 111.57-71.74L111.57-71.74L111.57-71.74Q114.81-71.74 117.38-71.30L117.38-71.30L117.38-71.30Q119.95-70.85 121.72-69.53L121.72-69.53L121.72-69.53Q123.48-68.21 124.44-65.93L124.44-65.93L124.44-65.93Q125.39-63.65 125.39-59.98L125.39-59.98ZM138.18-35.72L138.18-35.72L138.18-35.72Q138.18-45.42 141.12-52.55L141.12-52.55L141.12-52.55Q144.06-59.68 149.28-64.39L149.28-64.39L149.28-64.39Q154.50-69.09 161.48-71.37L161.48-71.37L161.48-71.37Q168.46-73.65 176.55-73.65L176.55-73.65L176.55-73.65Q179.49-73.65 182.28-73.13L182.28-73.13L182.28-73.13Q185.07-72.62 186.84-71.88L186.84-71.88L186.84-95.70L186.84-95.70Q188.31-96.14 191.54-96.65L191.54-96.65L191.54-96.65Q194.77-97.17 198.16-97.17L198.16-97.17L198.16-97.17Q201.39-97.17 203.96-96.73L203.96-96.73L203.96-96.73Q206.53-96.28 208.30-94.96L208.30-94.96L208.30-94.96Q210.06-93.64 210.94-91.36L210.94-91.36L210.94-91.36Q211.83-89.08 211.83-85.41L211.83-85.41L211.83-15.73L211.83-15.73Q211.83-8.82 205.36-4.70L205.36-4.70L205.36-4.70Q201.10-1.91 194.33 0.22L194.33 0.22L194.33 0.22Q187.57 2.35 178.75 2.35L178.75 2.35L178.75 2.35Q169.20 2.35 161.63-0.29L161.63-0.29L161.63-0.29Q154.06-2.94 148.84-7.94L148.84-7.94L148.84-7.94Q143.62-12.94 140.90-19.92L140.90-19.92L140.90-19.92Q138.18-26.90 138.18-35.72ZM179.93-54.10L179.93-54.10L179.93-54.10Q171.99-54.10 167.73-49.54L167.73-49.54L167.73-49.54Q163.46-44.98 163.46-35.72L163.46-35.72L163.46-35.72Q163.46-26.61 167.43-21.98L167.43-21.98L167.43-21.98Q171.40-17.35 178.90-17.35L178.90-17.35L178.90-17.35Q181.54-17.35 183.68-18.15L183.68-18.15L183.68-18.15Q185.81-18.96 186.98-19.99L186.98-19.99L186.98-52.33L186.98-52.33Q184.04-54.10 179.93-54.10ZM257.99-15.88L257.99-15.88L257.99-15.88Q260.48-15.88 263.50-16.39L263.50-16.39L263.50-16.39Q266.51-16.90 267.98-17.79L267.98-17.79L267.98-29.55L257.40-28.66L257.40-28.66Q253.28-28.37 250.63-26.90L250.63-26.90L250.63-26.90Q247.99-25.43 247.99-22.49L247.99-22.49L247.99-22.49Q247.99-19.55 250.27-17.71L250.27-17.71L250.27-17.71Q252.55-15.88 257.99-15.88ZM256.81-73.65L256.81-73.65L256.81-73.65Q264.75-73.65 271.29-72.03L271.29-72.03L271.29-72.03Q277.83-70.41 282.46-67.11L282.46-67.11L282.46-67.11Q287.09-63.80 289.59-58.73L289.59-58.73L289.59-58.73Q292.09-53.65 292.09-46.75L292.09-46.75L292.09-13.82L292.09-13.82Q292.09-10.00 289.96-7.57L289.96-7.57L289.96-7.57Q287.83-5.14 284.89-3.38L284.89-3.38L284.89-3.38Q275.33 2.35 257.99 2.35L257.99 2.35L257.99 2.35Q250.19 2.35 243.95 0.88L243.95 0.88L243.95 0.88Q237.70-0.59 233.22-3.53L233.22-3.53L233.22-3.53Q228.73-6.47 226.31-11.02L226.31-11.02L226.31-11.02Q223.88-15.58 223.88-21.61L223.88-21.61L223.88-21.61Q223.88-31.75 229.91-37.19L229.91-37.19L229.91-37.19Q235.93-42.63 248.58-43.95L248.58-43.95L267.83-46.01L267.83-47.04L267.83-47.04Q267.83-51.30 264.09-53.14L264.09-53.14L264.09-53.14Q260.34-54.98 253.28-54.98L253.28-54.98L253.28-54.98Q247.69-54.98 242.40-53.80L242.40-53.80L242.40-53.80Q237.11-52.63 232.85-50.86L232.85-50.86L232.85-50.86Q230.94-52.18 229.61-54.90L229.61-54.90L229.61-54.90Q228.29-57.62 228.29-60.56L228.29-60.56L228.29-60.56Q228.29-64.39 230.13-66.66L230.13-66.66L230.13-66.66Q231.97-68.94 235.79-70.56L235.79-70.56L235.79-70.56Q240.05-72.18 245.86-72.91L245.86-72.91L245.86-72.91Q251.66-73.65 256.81-73.65ZM363.68-36.31L363.68-18.38L363.68-18.38Q365.74-17.79 368.97-17.57L368.97-17.57L368.97-17.57Q372.20-17.35 375.14-17.35L375.14-17.35L375.14-17.35Q381.02-17.35 384.92-19.77L384.92-19.77L384.92-19.77Q388.81-22.20 388.81-27.34L388.81-27.34L388.81-27.34Q388.81-32.19 385.58-34.25L385.58-34.25L385.58-34.25Q382.35-36.31 375.73-36.31L375.73-36.31L363.68-36.31ZM363.68-71.59L363.68-54.24L374.41-54.24L374.41-54.24Q380.73-54.24 383.60-56.59L383.60-56.59L383.60-56.59Q386.46-58.95 386.46-63.50L386.46-63.50L386.46-63.50Q386.46-67.47 383.16-69.83L383.16-69.83L383.16-69.83Q379.85-72.18 373.23-72.18L373.23-72.18L373.23-72.18Q371.03-72.18 368.16-72.03L368.16-72.03L368.16-72.03Q365.29-71.88 363.68-71.59L363.68-71.59ZM373.23 2.35L373.23 2.35L373.23 2.35Q370.73 2.35 367.35 2.21L367.35 2.21L367.35 2.21Q363.97 2.06 360.37 1.62L360.37 1.62L360.37 1.62Q356.77 1.18 353.24 0.51L353.24 0.51L353.24 0.51Q349.71-0.15 346.77-1.32L346.77-1.32L346.77-1.32Q338.69-4.41 338.69-12.05L338.69-12.05L338.69-80.70L338.69-80.70Q338.69-83.79 340.38-85.48L340.38-85.48L340.38-85.48Q342.07-87.17 345.01-88.20L345.01-88.20L345.01-88.20Q350.01-89.96 357.50-90.77L357.50-90.77L357.50-90.77Q365.00-91.58 372.94-91.58L372.94-91.58L372.94-91.58Q391.75-91.58 401.90-85.26L401.90-85.26L401.90-85.26Q412.04-78.94 412.04-65.71L412.04-65.71L412.04-65.71Q412.04-59.09 408.22-54.32L408.22-54.32L408.22-54.32Q404.40-49.54 397.93-47.33L397.93-47.33L397.93-47.33Q405.28-45.28 410.20-39.84L410.20-39.84L410.20-39.84Q415.13-34.40 415.13-26.17L415.13-26.17L415.13-26.17Q415.13-11.61 404.32-4.63L404.32-4.63L404.32-4.63Q393.52 2.35 373.23 2.35ZM501.71-35.72L501.71-35.72L501.71-35.72Q501.71-26.61 498.92-19.48L498.92-19.48L498.92-19.48Q496.12-12.35 491.05-7.50L491.05-7.50L491.05-7.50Q485.98-2.65 478.93-0.15L478.93-0.15L478.93-0.15Q471.87 2.35 463.20 2.35L463.20 2.35L463.20 2.35Q454.52 2.35 447.47-0.29L447.47-0.29L447.47-0.29Q440.41-2.94 435.34-7.86L435.34-7.86L435.34-7.86Q430.27-12.79 427.48-19.84L427.48-19.84L427.48-19.84Q424.68-26.90 424.68-35.72L424.68-35.72L424.68-35.72Q424.68-44.39 427.48-51.45L427.48-51.45L427.48-51.45Q430.27-58.51 435.34-63.43L435.34-63.43L435.34-63.43Q440.41-68.35 447.47-71.00L447.47-71.00L447.47-71.00Q454.52-73.65 463.20-73.65L463.20-73.65L463.20-73.65Q471.87-73.65 478.93-70.93L478.93-70.93L478.93-70.93Q485.98-68.21 491.05-63.28L491.05-63.28L491.05-63.28Q496.12-58.36 498.92-51.30L498.92-51.30L498.92-51.30Q501.71-44.25 501.71-35.72ZM450.26-35.72L450.26-35.72L450.26-35.72Q450.26-26.75 453.72-21.98L453.72-21.98L453.72-21.98Q457.17-17.20 463.34-17.20L463.34-17.20L463.34-17.20Q469.52-17.20 472.83-22.05L472.83-22.05L472.83-22.05Q476.13-26.90 476.13-35.72L476.13-35.72L476.13-35.72Q476.13-44.54 472.75-49.32L472.75-49.32L472.75-49.32Q469.37-54.10 463.20-54.10L463.20-54.10L463.20-54.10Q457.02-54.10 453.64-49.32L453.64-49.32L453.64-49.32Q450.26-44.54 450.26-35.72ZM513.91-28.37L513.91-70.41L513.91-70.41Q515.38-70.85 518.54-71.30L518.54-71.30L518.54-71.30Q521.70-71.74 525.08-71.74L525.08-71.74L525.08-71.74Q528.32-71.74 530.89-71.30L530.89-71.30L530.89-71.30Q533.46-70.85 535.23-69.53L535.23-69.53L535.23-69.53Q536.99-68.21 537.95-65.93L537.95-65.93L537.95-65.93Q538.90-63.65 538.90-59.98L538.90-59.98L538.90-28.37L538.90-28.37Q538.90-22.34 541.84-19.77L541.84-19.77L541.84-19.77Q544.78-17.20 550.37-17.20L550.37-17.20L550.37-17.20Q553.75-17.20 555.88-17.79L555.88-17.79L555.88-17.79Q558.01-18.38 559.19-18.96L559.19-18.96L559.19-70.41L559.19-70.41Q560.66-70.85 563.82-71.30L563.82-71.30L563.82-71.30Q566.98-71.74 570.36-71.74L570.36-71.74L570.36-71.74Q573.59-71.74 576.17-71.30L576.17-71.30L576.17-71.30Q578.74-70.85 580.50-69.53L580.50-69.53L580.50-69.53Q582.27-68.21 583.22-65.93L583.22-65.93L583.22-65.93Q584.18-63.65 584.18-59.98L584.18-59.98L584.18-15.29L584.18-15.29Q584.18-7.94 578.00-4.26L578.00-4.26L578.00-4.26Q572.86-1.03 565.73 0.66L565.73 0.66L565.73 0.66Q558.60 2.35 550.22 2.35L550.22 2.35L550.22 2.35Q542.28 2.35 535.59 0.59L535.59 0.59L535.59 0.59Q528.91-1.18 524.05-4.85L524.05-4.85L524.05-4.85Q519.20-8.53 516.56-14.33L516.56-14.33L516.56-14.33Q513.91-20.14 513.91-28.37L513.91-28.37ZM624.46-50.27L624.46-0.15L624.46-0.15Q622.99 0.29 619.83 0.73L619.83 0.73L619.83 0.73Q616.66 1.18 613.28 1.18L613.28 1.18L613.28 1.18Q610.05 1.18 607.48 0.73L607.48 0.73L607.48 0.73Q604.90 0.29 603.14-1.03L603.14-1.03L603.14-1.03Q601.38-2.35 600.42-4.63L600.42-4.63L600.42-4.63Q599.47-6.91 599.47-10.58L599.47-10.58L599.47-54.68L599.47-54.68Q599.47-58.06 600.72-60.49L600.72-60.49L600.72-60.49Q601.96-62.92 604.32-64.83L604.32-64.83L604.32-64.83Q606.67-66.74 610.12-68.28L610.12-68.28L610.12-68.28Q613.58-69.83 617.55-71.00L617.55-71.00L617.55-71.00Q621.52-72.18 625.78-72.84L625.78-72.84L625.78-72.84Q630.04-73.50 634.30-73.50L634.30-73.50L634.30-73.50Q641.36-73.50 645.48-70.78L645.48-70.78L645.48-70.78Q649.59-68.06 649.59-61.89L649.59-61.89L649.59-61.89Q649.59-59.83 649.00-57.84L649.00-57.84L649.00-57.84Q648.42-55.86 647.53-54.24L647.53-54.24L647.53-54.24Q644.45-54.24 641.21-53.95L641.21-53.95L641.21-53.95Q637.98-53.65 634.89-53.07L634.89-53.07L634.89-53.07Q631.81-52.48 629.09-51.82L629.09-51.82L629.09-51.82Q626.37-51.16 624.46-50.27L624.46-50.27ZM656.80-35.72L656.80-35.72L656.80-35.72Q656.80-45.42 659.74-52.55L659.74-52.55L659.74-52.55Q662.68-59.68 667.89-64.39L667.89-64.39L667.89-64.39Q673.11-69.09 680.10-71.37L680.10-71.37L680.10-71.37Q687.08-73.65 695.16-73.65L695.16-73.65L695.16-73.65Q698.10-73.65 700.90-73.13L700.90-73.13L700.90-73.13Q703.69-72.62 705.45-71.88L705.45-71.88L705.45-95.70L705.45-95.70Q706.92-96.14 710.16-96.65L710.16-96.65L710.16-96.65Q713.39-97.17 716.77-97.17L716.77-97.17L716.77-97.17Q720.01-97.17 722.58-96.73L722.58-96.73L722.58-96.73Q725.15-96.28 726.91-94.96L726.91-94.96L726.91-94.96Q728.68-93.64 729.56-91.36L729.56-91.36L729.56-91.36Q730.44-89.08 730.44-85.41L730.44-85.41L730.44-15.73L730.44-15.73Q730.44-8.82 723.97-4.70L723.97-4.70L723.97-4.70Q719.71-1.91 712.95 0.22L712.95 0.22L712.95 0.22Q706.19 2.35 697.37 2.35L697.37 2.35L697.37 2.35Q687.81 2.35 680.24-0.29L680.24-0.29L680.24-0.29Q672.67-2.94 667.45-7.94L667.45-7.94L667.45-7.94Q662.23-12.94 659.52-19.92L659.52-19.92L659.52-19.92Q656.80-26.90 656.80-35.72ZM698.54-54.10L698.54-54.10L698.54-54.10Q690.61-54.10 686.34-49.54L686.34-49.54L686.34-49.54Q682.08-44.98 682.08-35.72L682.08-35.72L682.08-35.72Q682.08-26.61 686.05-21.98L686.05-21.98L686.05-21.98Q690.02-17.35 697.51-17.35L697.51-17.35L697.51-17.35Q700.16-17.35 702.29-18.15L702.29-18.15L702.29-18.15Q704.42-18.96 705.60-19.99L705.60-19.99L705.60-52.33L705.60-52.33Q702.66-54.10 698.54-54.10ZM745.44-91.29L745.44-91.29L745.44-91.29Q745.44-96.87 749.19-100.69L749.19-100.69L749.19-100.69Q752.93-104.52 759.11-104.52L759.11-104.52L759.11-104.52Q765.28-104.52 769.03-100.69L769.03-100.69L769.03-100.69Q772.78-96.87 772.78-91.29L772.78-91.29L772.78-91.29Q772.78-85.70 769.03-81.88L769.03-81.88L769.03-81.88Q765.28-78.06 759.11-78.06L759.11-78.06L759.11-78.06Q752.93-78.06 749.19-81.88L749.19-81.88L749.19-81.88Q745.44-85.70 745.44-91.29ZM771.60-59.98L771.60-0.15L771.60-0.15Q769.99 0.15 766.83 0.66L766.83 0.66L766.83 0.66Q763.66 1.18 760.43 1.18L760.43 1.18L760.43 1.18Q757.20 1.18 754.62 0.73L754.62 0.73L754.62 0.73Q752.05 0.29 750.29-1.03L750.29-1.03L750.29-1.03Q748.52-2.35 747.57-4.63L747.57-4.63L747.57-4.63Q746.61-6.91 746.61-10.58L746.61-10.58L746.61-70.41L746.61-70.41Q748.23-70.71 751.39-71.22L751.39-71.22L751.39-71.22Q754.55-71.74 757.78-71.74L757.78-71.74L757.78-71.74Q761.02-71.74 763.59-71.30L763.59-71.30L763.59-71.30Q766.16-70.85 767.93-69.53L767.93-69.53L767.93-69.53Q769.69-68.21 770.65-65.93L770.65-65.93L770.65-65.93Q771.60-63.65 771.60-59.98L771.60-59.98ZM847.75-21.31L847.75-21.31L847.75-21.31Q847.75-10.14 839.37-3.82L839.37-3.82L839.37-3.82Q830.99 2.50 814.67 2.50L814.67 2.50L814.67 2.50Q808.50 2.50 803.21 1.62L803.21 1.62L803.21 1.62Q797.92 0.73 794.17-1.10L794.17-1.10L794.17-1.10Q790.42-2.94 788.29-5.73L788.29-5.73L788.29-5.73Q786.16-8.53 786.16-12.35L786.16-12.35L786.16-12.35Q786.16-15.88 787.63-18.30L787.63-18.30L787.63-18.30Q789.10-20.73 791.15-22.34L791.15-22.34L791.15-22.34Q795.42-19.99 800.93-18.15L800.93-18.15L800.93-18.15Q806.44-16.32 813.64-16.32L813.64-16.32L813.64-16.32Q818.20-16.32 820.63-17.64L820.63-17.64L820.63-17.64Q823.05-18.96 823.05-21.17L823.05-21.17L823.05-21.17Q823.05-23.23 821.29-24.40L821.29-24.40L821.29-24.40Q819.52-25.58 815.41-26.31L815.41-26.31L811.00-27.19L811.00-27.19Q798.21-29.69 791.96-35.06L791.96-35.06L791.96-35.06Q785.71-40.42 785.71-50.42L785.71-50.42L785.71-50.42Q785.71-55.86 788.07-60.27L788.07-60.27L788.07-60.27Q790.42-64.68 794.68-67.62L794.68-67.62L794.68-67.62Q798.94-70.56 804.90-72.18L804.90-72.18L804.90-72.18Q810.85-73.79 818.05-73.79L818.05-73.79L818.05-73.79Q823.49-73.79 828.27-72.99L828.27-72.99L828.27-72.99Q833.05-72.18 836.58-70.56L836.58-70.56L836.58-70.56Q840.10-68.94 842.16-66.37L842.16-66.37L842.16-66.37Q844.22-63.80 844.22-60.27L844.22-60.27L844.22-60.27Q844.22-56.89 842.97-54.46L842.97-54.46L842.97-54.46Q841.72-52.04 839.81-50.42L839.81-50.42L839.81-50.42Q838.63-51.16 836.28-51.96L836.28-51.96L836.28-51.96Q833.93-52.77 831.14-53.43L831.14-53.43L831.14-53.43Q828.34-54.10 825.48-54.54L825.48-54.54L825.48-54.54Q822.61-54.98 820.26-54.98L820.26-54.98L820.26-54.98Q815.41-54.98 812.76-53.88L812.76-53.88L812.76-53.88Q810.12-52.77 810.12-50.42L810.12-50.42L810.12-50.42Q810.12-48.80 811.59-47.77L811.59-47.77L811.59-47.77Q813.06-46.75 817.17-45.86L817.17-45.86L821.73-44.84L821.73-44.84Q835.84-41.60 841.80-35.94L841.80-35.94L841.80-35.94Q847.75-30.28 847.75-21.31Z" fill="url(#editing-outline-gradient)"></path></g></g><style>text {
  font-size: 64px;
  font-family: Arial Black;
  dominant-baseline: central;
  text-anchor: middle;
}</style></svg>