<svg id="ec5DVwoXiR31" xmlns="http://www.w3.org/2000/svg" xmlns:xlink="http://www.w3.org/1999/xlink" viewBox="0 0 350 350" shape-rendering="geometricPrecision" text-rendering="geometricPrecision"><g id="ec5DVwoXiR32" transform="matrix(1 0 0 1 -32.73785974784923 -18.27864568207835)"><g id="ec5DVwoXiR33"><path id="ec5DVwoXiR34" d="M303.710000,266.850000C280.625864,266.779161,260.972226,250.038896,257.230000,227.260000L257.230000,100.150000C257.153114,73.942865,235.927135,52.716886,209.720000,52.640000L191.410000,52.640000C165.202865,52.716886,143.976886,73.942865,143.900000,100.150000L143.900000,271.450000C143.993181,295.065651,163.114349,314.186819,186.730000,314.280000L262.130000,314.280000C285.745651,314.186819,304.866819,295.065651,304.960000,271.450000L304.960000,266.840000Z" transform="matrix(1 0 0 1 6.76475800000000 -22.22705999999999)" fill="rgb(73,29,24)" stroke="none" stroke-width="1"/><path id="ec5DVwoXiR35" d="M280.430000,277C262.892768,276.956740,246.910838,266.930688,239.240000,251.160000L239.240000,100.590000C239.240000,83.844726,225.665274,70.270000,208.920000,70.270000L192.220000,70.270000C175.474726,70.270000,161.900000,83.844726,161.900000,100.590000L161.900000,266C161.905056,278.922893,170.097859,290.423324,182.310000,294.650000L182.310000,294.650000C182.310000,310.395638,195.074362,323.160000,210.820000,323.160000L240,323.160000C262.980826,323.094089,281.594089,304.480826,281.660000,281.500000L281.660000,277Z" transform="matrix(1 0 0 1 6.76475800000000 -22.22705999999999)" fill="rgb(73,29,24)" stroke="none" stroke-width="1"/><rect id="ec5DVwoXiR36" width="22.110000" height="22.110000" rx="7.790000" ry="7.790000" transform="matrix(1 0 0 1 196.27475799999999 55.35294000000000)" fill="rgb(0,0,0)" stroke="none" stroke-width="1"/></g><g id="ec5DVwoXiR37"><path id="ec5DVwoXiR38" d="M304.700000,368L304.700000,342.310000C304.612202,311.579311,279.730637,286.684345,249,286.580000L245.480000,286.580000C234.434305,286.580000,225.480000,277.625695,225.480000,266.580000L225.480000,246.530000L174.250000,246.530000L174.250000,266.620000C174.250000,277.665695,165.295695,286.620000,154.250000,286.620000L150.730000,286.620000C119.987647,286.707883,95.087883,311.607647,95,342.350000L95,368C95,372.633669,98.756331,376.390000,103.390000,376.390000L296.310000,376.390000C300.943669,376.390000,304.700000,372.633669,304.700000,368Z" transform="matrix(1 0 0 1 6.76475800000000 -22.22705999999999)" fill="rgb(247,194,153)" stroke="none" stroke-width="1"/><path id="ec5DVwoXiR39" d="M174.250000,246.530000L174.250000,266.620000C174.227218,271.284180,172.555266,275.789949,169.530000,279.340000C178.733861,284.352790,189.049592,286.972985,199.530000,286.960000L200.280000,286.960000C210.760355,286.972558,221.075981,284.352389,230.280000,279.340000C227.254734,275.789949,225.582782,271.284180,225.560000,266.620000L225.560000,246.530000Z" transform="matrix(1 0 0 1 6.76475800000000 -22.22705999999999)" fill="rgb(227,165,126)" stroke="none" stroke-width="1"/><g id="ec5DVwoXiR310"><path id="ec5DVwoXiR311" d="M260,287.690000C250.723637,312.293072,227.213638,328.608406,200.920000,328.690000L200.170000,328.690000C173.786047,328.606823,150.215143,312.182480,141,287.460000C114.441835,292.251183,95.092400,315.323281,95,342.310000L95,372.160000C95,376.793669,98.756331,380.550000,103.390000,380.550000L296.310000,380.550000C300.943669,380.550000,304.700000,376.793669,304.700000,372.160000L304.700000,342.310000C304.615124,315.815017,285.954797,293.013517,260,287.690000Z" transform="matrix(1 0 0 1 6.76475800000000 -22.22705999999999)" fill="rgb(40,38,36)" stroke="none" stroke-width="1"/><line id="ec5DVwoXiR312" x1="140.990000" y1="348.390000" x2="140.990000" y2="371.970000" transform="matrix(1 0 0 1 6.76475800000000 -22.22705999999999)" fill="none" stroke="rgb(91,89,87)" stroke-width="8" stroke-linecap="round" stroke-miterlimit="10"/><line id="ec5DVwoXiR313" x1="258.750000" y1="348.390000" x2="258.750000" y2="371.970000" transform="matrix(1 0 0 1 6.76475800000000 -22.22705999999999)" fill="none" stroke="rgb(91,89,87)" stroke-width="8" stroke-linecap="round" stroke-miterlimit="10"/></g></g><g id="ec5DVwoXiR314"><circle id="ec5DVwoXiR315" r="19.500000" transform="matrix(1 0 0 1 268.88475800000003 173.04294000000002)" fill="rgb(247,194,153)" stroke="none" stroke-width="1"/><circle id="ec5DVwoXiR316" r="19.500000" transform="matrix(1 0 0 1 144.38475800000001 173.04294000000002)" fill="rgb(247,194,153)" stroke="none" stroke-width="1"/><path id="ec5DVwoXiR317" d="M197,100.180000L204.140000,100.180000C220.031772,100.180000,235.272659,106.492982,246.509838,117.730162C257.747018,128.967341,264.060000,144.208228,264.060000,160.100000L264.060000,201.370000C264.060000,236.230213,235.800213,264.490000,200.940000,264.490000L200.190000,264.490000C183.449535,264.490000,167.394716,257.839876,155.557420,246.002580C143.720124,234.165284,137.070000,218.110465,137.070000,201.370000L137.070000,160.110000C137.067347,144.214763,143.380531,128.969791,154.620161,117.730161C165.859791,106.490531,181.104763,100.177347,197,100.180000Z" transform="matrix(1 0 0 1 6.76475800000000 -22.22705999999999)" fill="rgb(247,194,153)" stroke="none" stroke-width="1"/><path id="ec5DVwoXiR318" d="M184.580000,219.310000L184.580000,219.600000C184.580000,226.890000,190.370000,233.420000,198.420000,234.380000C208.160000,235.540000,216.560000,228.680000,216.560000,220.140000L216.560000,219.310000C216.430943,217.049255,214.501574,215.316396,212.240000,215.430000L188.900000,215.430000C186.638426,215.316396,184.709057,217.049255,184.580000,219.310000Z" transform="matrix(1 0 0 1 6.76475800000000 -22.22705999999999)" fill="rgb(255,255,255)" stroke="none" stroke-width="1"/><path id="ec5DVwoXiR319" d="M207.230000,205.130000C205.850695,202.789844,203.355792,201.333113,200.639874,201.282139C197.923955,201.231164,195.376147,202.593249,193.910000,204.880000" transform="matrix(1 0 0 1 6.76475800000000 -22.22705999999999)" fill="none" stroke="rgb(207,148,109)" stroke-width="4" stroke-linecap="round" stroke-miterlimit="10"/><g id="ec5DVwoXiR320"><ellipse id="ec5DVwoXiR321" rx="6.880000" ry="7.430000" transform="matrix(1 0 0 1 175.13475800000001 167.88294000000002)" fill="rgb(0,0,0)" stroke="none" stroke-width="1"/><ellipse id="ec5DVwoXiR322" rx="6.880000" ry="7.430000" transform="matrix(1 0 0 1 238.14475800000000 167.88294000000002)" fill="rgb(0,0,0)" stroke="none" stroke-width="1"/></g><g id="ec5DVwoXiR323"><line id="ec5DVwoXiR324" x1="219.710000" y1="158.350000" x2="243.040000" y2="158.350000" transform="matrix(1 0 0 1 6.76475800000000 -22.22705999999999)" fill="none" stroke="rgb(97,39,31)" stroke-width="8" stroke-linecap="round" stroke-miterlimit="10"/><line id="ec5DVwoXiR325" x1="156.710000" y1="158.350000" x2="180.030000" y2="158.350000" transform="matrix(1 0 0 1 6.76475800000000 -22.22705999999999)" fill="none" stroke="rgb(97,39,31)" stroke-width="8" stroke-linecap="round" stroke-miterlimit="10"/></g><g id="ec5DVwoXiR326"><path id="ec5DVwoXiR327" d="M268,162.850000L268,149.580000C268,115.920000,238.850000,88.640000,202.880000,88.640000L197.540000,88.640000C161.540000,88.640000,132.420000,115.920000,132.420000,149.580000L132.420000,191.640000L132.420000,191.640000L132.420000,192.890000C132.430956,195.453572,134.506428,197.529044,137.070000,197.540000L137.150000,197.540000C139.713572,197.529044,141.789044,195.453572,141.800000,192.890000L141.800000,168.890000C141.794259,149.638525,151.761875,131.758120,168.140000,121.640000L233,121.640000C249.378125,131.758120,259.345741,149.638525,259.340000,168.890000L259.340000,191.640000L259.340000,191.640000L259.340000,193.640000C259.345496,195.791630,261.088370,197.534504,263.240000,197.540000L264.080000,197.540000C266.231630,197.534504,267.974504,195.791630,267.980000,193.640000L267.980000,162.850000Z" transform="matrix(1 0 0 1 6.76475800000000 -22.22705999999999)" fill="rgb(98,42,35)" stroke="none" stroke-width="1"/><path id="ec5DVwoXiR328" d="M230.060000,102.510000C230.433651,103.169053,230.633261,103.912425,230.640000,104.670000L230.640000,114.720000" transform="matrix(1 0 0 1 6.76475800000000 -22.22705999999999)" fill="none" stroke="rgb(73,29,24)" stroke-width="7" stroke-linecap="round" stroke-miterlimit="10"/><path id="ec5DVwoXiR329" d="M182.590000,114.720000L182.590000,100.870000C182.728243,99.465272,183.536474,98.213816,184.760000,97.510000" transform="matrix(1 0 0 1 6.76475800000000 -22.22705999999999)" fill="none" stroke="rgb(73,29,24)" stroke-width="7" stroke-linecap="round" stroke-miterlimit="10"/><line id="ec5DVwoXiR330" x1="196.700000" y1="114.720000" x2="196.700000" y2="108.390000" transform="matrix(1 0 0 1 6.76475800000000 -22.22705999999999)" fill="none" stroke="rgb(73,29,24)" stroke-width="7" stroke-linecap="round" stroke-miterlimit="10"/></g></g></g></svg>