<?xml version="1.0" standalone="no"?>
<!DOCTYPE svg PUBLIC "-//W3C//DTD SVG 20010904//EN"
 "http://www.w3.org/TR/2001/REC-SVG-20010904/DTD/svg10.dtd">
<svg version="1.0" xmlns="http://www.w3.org/2000/svg"
 width="920.000000pt" height="1061.000000pt" viewBox="0 0 920.000000 1061.000000"
 preserveAspectRatio="xMidYMid meet">
<metadata>
Created by potrace 1.16, written by Peter Selinger 2001-2019
</metadata>
<g transform="translate(0.000000,1061.000000) scale(0.100000,-0.100000)"
fill="#000000" stroke="none">
<path d="M4540 10200 c-25 -6 -98 -28 -163 -51 -178 -63 -185 -75 -207 -362
-10 -125 -26 -231 -29 -190 -3 34 -68 190 -101 242 -32 50 -56 71 -142 127
-152 99 -197 117 -299 122 -110 5 -210 -12 -289 -49 -118 -56 -259 -222 -334
-393 -23 -53 -47 -90 -82 -123 -72 -70 -99 -130 -99 -223 0 -100 26 -171 83
-232 60 -64 90 -82 224 -129 62 -21 119 -47 125 -56 20 -27 25 -75 21 -200
l-4 -118 -308 -685 c-169 -377 -316 -711 -327 -743 -48 -143 -40 -383 15 -419
50 -34 266 36 428 138 21 13 39 24 42 24 2 0 6 -17 10 -38 9 -58 57 -121 159
-210 54 -46 101 -96 111 -116 16 -34 16 -41 0 -119 -82 -405 -601 -2038 -831
-2617 -95 -239 -137 -304 -332 -514 -95 -102 -190 -236 -260 -366 -72 -135
-130 -287 -292 -770 -97 -289 -179 -515 -209 -577 -61 -124 -138 -209 -385
-423 -251 -218 -269 -245 -269 -405 -1 -130 28 -228 81 -281 l36 -37 81 6 c85
5 170 32 228 70 18 12 85 95 148 184 63 88 165 221 226 294 147 178 150 184
180 286 94 326 270 645 602 1090 185 248 518 663 532 663 3 0 18 -298 32 -662
31 -767 23 -716 145 -973 135 -288 137 -291 137 -375 0 -99 -22 -147 -113
-245 -82 -88 -94 -117 -62 -148 21 -22 27 -22 436 -25 l414 -3 18 28 c17 25
18 60 18 463 l0 435 37 145 c45 175 140 642 294 1444 63 330 116 601 117 602
2 2 133 -225 292 -503 160 -279 312 -539 339 -577 27 -39 107 -129 179 -200
l130 -128 10 -157 c14 -230 2 -315 -62 -445 -28 -55 -80 -148 -117 -206 -37
-58 -75 -126 -85 -151 -21 -54 -45 -221 -54 -369 -3 -58 -8 -135 -11 -172 l-5
-67 37 -16 c20 -8 38 -14 39 -13 2 2 25 48 53 103 29 59 52 94 55 85 3 -8 13
-55 22 -103 19 -102 58 -226 82 -263 9 -14 28 -30 41 -35 41 -16 475 -39 515
-28 49 13 87 52 87 88 0 26 -10 35 -99 90 -55 34 -107 74 -117 89 -10 15 -20
52 -22 82 -4 55 54 1050 62 1057 2 2 347 -219 767 -493 420 -273 769 -499 777
-501 7 -3 42 7 78 22 36 15 68 25 71 21 4 -3 9 -33 11 -66 4 -54 2 -61 -23
-84 -16 -15 -49 -30 -83 -37 -32 -6 -74 -18 -95 -26 -85 -34 -65 -92 44 -131
60 -21 77 -22 249 -19 208 4 225 9 282 76 18 22 56 78 84 125 43 73 57 110 89
235 l38 149 54 6 c77 9 105 27 138 88 16 29 43 76 61 103 49 78 94 172 94 198
0 20 -22 36 -152 107 -180 98 -328 188 -328 199 0 4 11 18 25 31 14 13 25 27
25 32 0 16 -180 97 -334 148 -142 48 -176 64 -319 153 -284 175 -697 451
-1062 710 -77 55 -143 103 -147 106 -4 4 12 56 36 117 108 274 197 570 211
699 6 55 4 65 -27 126 -63 121 -211 303 -537 664 -128 142 -174 200 -182 229
-9 32 -6 76 15 225 43 303 34 395 -66 686 l-62 180 1 120 c1 189 47 362 121
460 21 28 76 81 122 118 93 75 375 267 392 267 6 0 47 -23 91 -51 230 -148
363 -177 535 -118 109 38 154 94 172 217 19 133 11 156 -204 588 l-194 391 29
104 c16 57 36 139 45 182 15 76 15 79 -6 121 -19 40 -20 54 -14 160 8 141 -2
166 -66 166 -34 0 -42 4 -55 30 -12 24 -22 30 -47 30 -26 0 -43 -12 -96 -70
-63 -67 -67 -70 -112 -70 -38 0 -51 -5 -72 -27 -28 -30 -68 -106 -87 -165 -7
-21 -16 -38 -21 -38 -34 0 -490 169 -582 216 -95 48 -191 155 -300 332 l-58
96 0 98 c0 97 0 98 40 160 74 113 92 250 42 318 -23 30 -23 30 -6 118 19 103
15 226 -11 290 -30 75 -152 164 -292 213 -67 24 -240 34 -313 19z m-256 -1239
c53 -112 96 -212 96 -221 0 -34 -72 -242 -89 -259 -15 -15 -41 -20 -122 -26
-57 -4 -131 -5 -164 -3 l-60 3 -9 107 c-11 128 -6 138 80 189 55 33 59 38 82
104 13 39 34 117 48 175 28 121 35 143 39 138 2 -2 46 -95 99 -207z"/>
</g>
</svg>
