<svg id="epKdfCUNQt51" xmlns="http://www.w3.org/2000/svg" xmlns:xlink="http://www.w3.org/1999/xlink" viewBox="0 0 256 373" shape-rendering="geometricPrecision" text-rendering="geometricPrecision"><g id="epKdfCUNQt52" transform="matrix(1 0 0 1 -0.00068140000008 58.50245618500000)"><path id="epKdfCUNQt53" d="M251.172245,116.593517L139.398753,4.828453C132.966433,-1.609484,122.525852,-1.609484,116.085106,4.828453L92.875386,28.038172L122.317995,57.480781C129.160410,55.169078,137.005593,56.719576,142.460425,62.174408C147.940536,67.662946,149.479799,75.575542,147.111919,82.440428L175.487156,110.815665C182.352042,108.450594,190.273064,109.981430,195.755985,115.472777C203.418591,123.132574,203.418591,135.547794,195.755985,143.213209C188.090570,150.878624,175.675350,150.878624,168.007126,143.213209C162.243319,137.443783,160.819220,128.977839,163.737639,121.877008L137.275245,95.414614L137.272436,165.052198C139.140337,165.979126,140.904309,167.212221,142.460425,168.762719C150.123031,176.422516,150.123031,188.837736,142.460425,196.508768C134.795010,204.171375,122.374173,204.171375,114.719993,196.508768C107.057387,188.837736,107.057387,176.422516,114.719993,168.762719C116.613174,166.872347,118.804095,165.442631,121.141077,164.481996L121.141077,94.195562C118.804095,93.240546,116.615983,91.819256,114.719993,89.914840C108.914052,84.117325,107.518042,75.598013,110.492639,68.469093L81.471361,39.442197L4.831256,116.076685C-1.609490,122.520240,-1.609490,132.960821,4.831256,139.398759L116.604747,251.166631C123.039876,257.604569,133.477648,257.604569,139.921203,251.166631L251.172245,139.918400C257.610180,133.477654,257.610180,123.031455,251.172245,116.593517" fill="rgb(0,0,0)" stroke="none" stroke-width="1"/></g></svg>