<svg id="eAZCk3cB1g21" xmlns="http://www.w3.org/2000/svg" xmlns:xlink="http://www.w3.org/1999/xlink" viewBox="0 0 256 373" shape-rendering="geometricPrecision" text-rendering="geometricPrecision"><g id="eAZCk3cB1g22" transform="matrix(1 0 0 1 0.00000345999995 6.45603943000000)"><path id="eAZCk3cB1g23" d="M255.554813,70.765714L232.313670,331.125451L127.843868,360.087912L23.661714,331.166242L0.445187,70.765714L255.554813,70.765714L255.554813,70.765714Z" fill="rgb(0,0,0)" stroke="none" stroke-width="1"/><path id="eAZCk3cB1g24" d="M128,337.950242L212.416703,314.546637L232.277802,92.057319L128,92.057319L128,337.950242L128,337.950242Z" fill="rgb(68,68,68)" stroke="none" stroke-width="1"/><path id="eAZCk3cB1g25" d="M82.820220,155.932132L128,155.932132L128,123.994725L47.917011,123.994725L48.681494,132.562989L56.530989,220.572835L128,220.572835L128,188.636132L85.738901,188.636132L82.820220,155.932132L82.820220,155.932132Z" fill="rgb(235,235,235)" stroke="none" stroke-width="1"/><path id="eAZCk3cB1g26" d="M90.017758,236.541890L57.957978,236.541890L62.432352,286.687648L127.853011,304.848879L128,304.808088L128,271.580132L127.860044,271.617407L92.291517,262.013187L90.017758,236.541890L90.017758,236.541890Z" fill="rgb(235,235,235)" stroke="none" stroke-width="1"/><path id="eAZCk3cB1g27" d="M24.180747,0L40.410725,0L40.410725,16.035165L55.257319,16.035165L55.257319,0L71.488000,0L71.488000,48.558418L55.258022,48.558418L55.258022,32.298198L40.411429,32.298198L40.411429,48.558418L24.181451,48.558418L24.181451,0L24.180747,0L24.180747,0Z" fill="rgb(0,0,0)" stroke="none" stroke-width="1"/><path id="eAZCk3cB1g28" d="M92.830945,16.102681L78.542769,16.102681L78.542769,0L123.356835,0L123.356835,16.102681L109.062330,16.102681L109.062330,48.558418L92.831648,48.558418L92.831648,16.102681L92.830945,16.102681L92.830945,16.102681Z" fill="rgb(0,0,0)" stroke="none" stroke-width="1"/><path id="eAZCk3cB1g29" d="M130.469275,0L147.392703,0L157.802901,17.061978L168.202549,0L185.132308,0L185.132308,48.558418L168.969143,48.558418L168.969143,24.490198L157.802901,41.755429L157.523692,41.755429L146.349714,24.490198L146.349714,48.558418L130.469275,48.558418L130.469275,0L130.469275,0Z" fill="rgb(0,0,0)" stroke="none" stroke-width="1"/><path id="eAZCk3cB1g210" d="M193.209670,0L209.444571,0L209.444571,32.507780L232.268659,32.507780L232.268659,48.558418L193.209670,48.558418L193.209670,0L193.209670,0Z" fill="rgb(0,0,0)" stroke="none" stroke-width="1"/><path id="eAZCk3cB1g211" d="M127.889582,220.572835L167.216527,220.572835L163.509451,261.992791L127.889582,271.606857L127.889582,304.833407L193.362286,286.687648L193.842637,281.291956L201.347516,197.212132L202.126769,188.636132L127.889582,188.636132L127.889582,220.572835L127.889582,220.572835Z" fill="rgb(255,255,255)" stroke="none" stroke-width="1"/><path id="eAZCk3cB1g212" d="M127.889582,155.854066L127.889582,155.932132L205.032791,155.932132L205.673495,148.753582L207.128615,132.562989L207.892396,123.994725L127.889582,123.994725L127.889582,155.854066L127.889582,155.854066Z" fill="rgb(255,255,255)" stroke="none" stroke-width="1"/></g></svg>