<svg id="edvg2nJTscK1" xmlns="http://www.w3.org/2000/svg" xmlns:xlink="http://www.w3.org/1999/xlink" viewBox="0 0 256 373" shape-rendering="geometricPrecision" text-rendering="geometricPrecision"><defs><linearGradient id="edvg2nJTscK5-fill" x1="0.499998" y1="1" x2="0.499998" y2="0" spreadMethod="pad" gradientUnits="objectBoundingBox"><stop id="edvg2nJTscK5-fill-0" offset="0%" stop-color="rgb(255,255,255)"/><stop id="edvg2nJTscK5-fill-1" offset="69%" stop-color="rgb(0,0,0)"/></linearGradient></defs><g id="edvg2nJTscK2" transform="matrix(1 0 0 1 -0.00000000000006 58.50000000000000)"><path id="edvg2nJTscK3" d="M128,249.491200C195.098400,249.491200,249.492000,195.097600,249.492000,128C249.492000,60.902080,195.098400,6.508472,128,6.508472C60.902400,6.508472,6.508792,60.902080,6.508792,128C6.508792,195.097600,60.902400,249.491200,128,249.491200Z" fill="rgb(255,255,255)" stroke="none" stroke-width="1"/><path id="edvg2nJTscK4" d="M128,0C57.307520,0,0,57.307520,0,128C0,198.692800,57.307520,256,128,256C198.692800,256,256,198.692800,256,128C256,57.307520,198.692800,0,128,0ZM128,13.016960C191.503200,13.016960,242.983200,64.496640,242.983200,128C242.983200,191.503200,191.503200,242.983200,128,242.983200C64.496640,242.983200,13.016960,191.503200,13.016960,128C13.016960,64.496640,64.496640,13.016960,128,13.016960Z" fill="rgb(0,0,0)" stroke="none" stroke-width="1"/><path id="edvg2nJTscK5" d="M129.445600,36.881360C179.769600,36.881360,220.564800,77.676560,220.564800,128C220.564800,178.323200,179.769600,219.118400,129.445600,219.118400C79.122320,219.118400,38.327120,178.323200,38.327120,128C38.327120,115.701600,40.763760,103.972000,45.180640,93.267200C51.629840,102.049600,62.030160,107.751200,73.762160,107.751200C93.332800,107.751200,109.196800,91.886400,109.196800,72.316400C109.196800,60.584400,103.496000,50.184080,94.712800,43.734960C105.417600,39.318000,117.147200,36.881360,129.445600,36.881360Z" fill="url(#edvg2nJTscK5-fill)" stroke="none" stroke-width="1"/></g></svg>