<svg id="eanDodMF5Op1" xmlns="http://www.w3.org/2000/svg" xmlns:xlink="http://www.w3.org/1999/xlink" viewBox="0 0 256 373" shape-rendering="geometricPrecision" text-rendering="geometricPrecision"><g id="eanDodMF5Op2" transform="matrix(1 0 0 1 -0.00000000000006 58.50000000000000)"><path id="eanDodMF5Op3" d="M0,0L256,0L256,256L0,256L0,0Z" fill="rgb(0,0,0)" stroke="none" stroke-width="1"/><path id="eanDodMF5Op4" d="M67.311746,213.932292L86.902654,202.076241C90.682108,208.777346,94.120229,214.447137,102.367086,214.447137C110.272203,214.447137,115.256076,211.354819,115.256076,199.326883L115.256076,117.528787L139.313575,117.528787L139.313575,199.666997C139.313575,224.584330,124.707759,235.925943,103.398400,235.925943C84.153295,235.925943,72.981943,225.958603,67.311340,213.930260" fill="rgb(255,255,255)" stroke="none" stroke-width="1"/><path id="eanDodMF5Op5" d="M152.380952,211.354413L171.969422,200.012800C177.125994,208.433981,183.827911,214.619835,195.684368,214.619835C205.652521,214.619835,212.009041,209.635962,212.009041,202.762159C212.009041,194.513676,205.479416,191.592025,194.481168,186.782070L188.468419,184.202565C171.111213,176.814730,159.597308,167.535340,159.597308,147.944838C159.597308,129.901308,173.344508,116.153295,194.825752,116.153295C210.119924,116.153295,221.117765,121.480940,229.021663,135.400432L210.290590,147.428775C206.166146,140.040127,201.699556,137.119289,194.826159,137.119289C187.780470,137.119289,183.312254,141.587098,183.312254,147.428775C183.312254,154.646349,187.780470,157.568406,198.089956,162.036622L204.103924,164.614095C224.553448,173.378641,236.067352,182.313448,236.067352,202.418387C236.067352,224.071924,219.055137,235.927975,196.200432,235.927975C173.860978,235.927975,159.425829,225.274311,152.381359,211.354413" fill="rgb(255,255,255)" stroke="none" stroke-width="1"/></g></svg>