<svg id="eqy3ApLsigk1" xmlns="http://www.w3.org/2000/svg" xmlns:xlink="http://www.w3.org/1999/xlink" viewBox="0 0 256 373" shape-rendering="geometricPrecision" text-rendering="geometricPrecision"><g id="eqy3ApLsigk2" transform="matrix(1 0 0 1 -0.00000000000006 42.26811218500001)"><path id="eqy3ApLsigk3" d="M127.999999,288.463771C124.024844,288.463771,120.314699,287.403728,116.869564,285.548656L81.623188,264.612838C76.322980,261.697724,78.973085,260.637682,80.563146,260.107661C87.718426,257.722570,89.043477,257.192547,96.463769,252.952381C97.258798,252.422361,98.318840,252.687372,99.113872,253.217392L126.144927,269.383024C127.204970,269.913045,128.530021,269.913045,129.325053,269.383024L235.064182,208.165634C236.124225,207.635611,236.654245,206.575571,236.654245,205.250519L236.654245,83.080747C236.654245,81.755693,236.124225,80.695653,235.064182,80.165632L129.325053,19.213251C128.265010,18.683231,126.939959,18.683231,126.144927,19.213251L20.405795,80.165632C19.345755,80.695653,18.815735,82.020704,18.815735,83.080747L18.815735,205.250519C18.815735,206.310560,19.345755,207.635611,20.405795,208.165634L49.291925,224.861286C64.927536,232.811595,74.732920,223.536234,74.732920,214.260871L74.732920,93.681159C74.732920,92.091099,76.057971,90.501036,77.913043,90.501036L91.428572,90.501036C93.018634,90.501036,94.608695,91.826087,94.608695,93.681159L94.608695,214.260871C94.608695,235.196689,83.213251,247.387164,63.337474,247.387164C57.242236,247.387164,52.472050,247.387164,38.956521,240.761906L11.130435,224.861286C4.240166,220.886129,0,213.465840,0,205.515528L0,83.345756C0,75.395447,4.240166,67.975155,11.130435,64.000001L116.869564,2.782608C123.494824,-0.927536,132.505176,-0.927536,139.130436,2.782608L244.869565,64.000001C251.759834,67.975155,256,75.395447,256,83.345756L256,205.515528C256,213.465840,251.759834,220.886129,244.869565,224.861286L139.130436,286.078676C135.685299,287.668739,131.710145,288.463771,127.999999,288.463771L127.999999,288.463771ZM160.596274,204.455488C114.219461,204.455488,104.679089,183.254659,104.679089,165.233955C104.679089,163.643893,106.004141,162.053832,107.859212,162.053832L121.639752,162.053832C123.229813,162.053832,124.554864,163.113872,124.554864,164.703935C126.674947,178.749484,132.770187,185.639753,160.861283,185.639753C183.122154,185.639753,192.662526,180.604556,192.662526,168.679090C192.662526,161.788821,190.012423,156.753624,155.296065,153.308489C126.409938,150.393375,108.389235,144.033126,108.389235,120.977226C108.389235,99.511387,126.409938,86.790890,156.621119,86.790890C190.542443,86.790890,207.238095,98.451347,209.358178,123.892340C209.358178,124.687371,209.093167,125.482403,208.563147,126.277434C208.033127,126.807454,207.238095,127.337474,206.443064,127.337474L192.662526,127.337474C191.337475,127.337474,190.012423,126.277434,189.747412,124.952382C186.567289,110.376813,178.351966,105.606625,156.621119,105.606625C132.240165,105.606625,129.325053,114.086957,129.325053,120.447205C129.325053,128.132506,132.770187,130.517600,165.631471,134.757766C198.227744,138.997931,213.598344,145.093169,213.598344,167.884058C213.333333,191.204970,194.252589,204.455488,160.596274,204.455488L160.596274,204.455488Z" fill="rgb(0,0,0)" stroke="none" stroke-width="1"/></g></svg>