<svg id="e7acZ6TY0m21" xmlns="http://www.w3.org/2000/svg" xmlns:xlink="http://www.w3.org/1999/xlink" viewBox="0 0 256 373" shape-rendering="geometricPrecision" text-rendering="geometricPrecision"><g id="e7acZ6TY0m22" transform="matrix(1 0 0 1 0.00943183999995 54.48639103500000)"><path id="e7acZ6TY0m23" d="M255.007926,158.085617C253.473109,153.437413,249.452194,150.199279,244.251788,149.421820C241.799982,149.055852,238.991667,149.211935,235.668988,149.897164C229.877358,151.092028,225.580342,151.546679,222.444490,151.635363C234.280794,131.650217,243.905921,108.859714,249.446873,87.406559C258.406282,52.718263,253.618550,36.915436,248.023797,29.766947C233.217182,10.847778,211.614448,0.683455,185.551520,0.371880C171.649478,0.202199,159.443658,2.947252,153.077358,4.920758C147.149155,3.875473,140.774577,3.291344,134.086060,3.183150C121.550337,2.983316,110.473164,5.715954,101.008259,11.332582C95.767058,9.561275,87.358079,7.063353,77.646042,5.468822C54.803510,1.718688,36.393977,4.641109,22.928259,14.153903C6.622300,25.672129,-0.937090,45.683880,0.461155,73.633995C0.904573,82.508268,5.869081,109.507695,13.685062,135.114199C18.177182,149.831538,22.967279,162.053912,27.922328,171.443732C34.949025,184.758688,42.467621,192.600092,50.908527,195.415501C55.640092,196.992296,64.235898,198.095520,73.277487,190.566873C74.423279,191.953885,75.951594,193.333210,77.981266,194.613801C80.557820,196.239076,83.709044,197.566965,86.855538,198.353885C98.196989,201.189395,108.820102,200.479926,117.882975,196.506309C117.938550,198.117986,117.981709,199.658125,118.018365,200.987788C118.078670,203.145164,118.137792,205.259972,118.217016,207.237617C118.753848,220.612286,119.663741,231.011326,122.359723,238.286928C122.507529,238.687778,122.706771,239.297330,122.917247,239.943538C124.261691,244.062005,126.511298,250.955677,132.232573,256.355326C138.158411,261.947714,145.325229,263.663446,151.888998,263.662855C155.180933,263.662855,158.322106,263.231261,161.076619,262.640628C170.897441,260.536462,182.050291,257.329663,190.118134,245.842180C197.745515,234.981986,201.453672,218.625182,202.124711,192.851363C202.211621,192.122975,202.292028,191.427104,202.369478,190.763751C202.421506,190.316194,202.474716,189.858587,202.528517,189.402162L204.325838,189.560018L204.788767,189.591353C214.791095,190.047187,227.021155,187.925875,234.532065,184.437062C240.467363,181.682550,259.485857,171.642383,255.007926,158.085617" fill="rgb(0,0,0)" stroke="none" stroke-width="1"/><path id="e7acZ6TY0m24" d="M237.905589,160.722476C208.165838,166.857016,206.121386,156.787880,206.121386,156.787880C237.521885,110.194697,250.648240,51.051603,239.320388,36.576665C208.417109,-2.908231,154.921977,15.765580,154.029229,16.250383L153.741894,16.301820C147.866309,15.082125,141.290716,14.355510,133.900416,14.234901C120.443566,14.014374,110.236083,17.762734,102.490457,23.636545C102.490457,23.636545,7.060397,-15.676896,11.498716,73.080610C12.442901,91.963122,38.562587,215.954032,69.717136,178.502947C81.104111,164.808425,92.106199,153.229303,92.106199,153.229303C97.570882,156.859418,104.112776,158.711132,110.970975,158.046005L111.503667,157.593718C111.338125,159.294079,111.413801,160.957192,111.717099,162.925968C103.691233,171.893062,106.049626,173.467492,90.005580,176.770069C73.771159,180.115806,83.308194,186.072388,89.534965,187.629081C97.083714,189.516859,114.547880,192.190965,126.348120,175.672166L125.877506,177.556988C129.022226,180.075603,131.230448,193.940397,130.860342,206.508637C130.490236,219.077469,130.243104,227.706383,132.720924,234.446337C135.198744,241.186291,137.668286,256.351187,158.759612,251.831871C176.383409,248.055132,185.516046,238.268009,186.786587,221.942540C187.688203,210.336222,189.728517,212.051954,189.857404,201.675381L191.493912,196.762901C193.381099,181.029838,191.793663,175.954180,202.651492,178.314938L205.290125,178.546697C213.281700,178.910300,223.741044,177.261376,229.879723,174.408129C243.098309,168.273589,250.937940,158.031224,237.904406,160.722476L237.905589,160.722476" fill="rgb(0,0,0)" stroke="none" stroke-width="1"/><path id="e7acZ6TY0m25" d="M108.076342,81.525062C105.396915,81.152000,102.969349,81.497275,101.741376,82.426679C101.050236,82.949912,100.836804,83.555917,100.779455,83.973321C100.625145,85.078319,101.399649,86.299787,101.874993,86.930032C103.220619,88.713755,105.187030,89.939954,107.133339,90.210143C107.415353,90.249164,107.695594,90.268083,107.974651,90.268083C111.220471,90.268083,114.170679,87.741192,114.430818,85.875880C114.755991,83.539954,111.364730,81.982670,108.076342,81.525062" fill="rgb(255,255,255)" stroke="none" stroke-width="1"/><path id="e7acZ6TY0m26" d="M196.860453,81.598965L196.859861,81.598965C196.604453,79.767945,193.345626,79.245894,190.253524,79.675714C187.166152,80.106125,184.171603,81.499640,184.421691,83.334799C184.622707,84.762014,187.198670,87.198448,190.249386,87.197857C190.506568,87.197857,190.766707,87.180711,191.028619,87.144055C193.064794,86.862042,194.558818,85.569035,195.268286,84.823501C196.349635,83.688351,196.974559,82.421949,196.860453,81.598965" fill="rgb(255,255,255)" stroke="none" stroke-width="1"/><path id="e7acZ6TY0m27" d="M247.802088,160.025423C246.668120,156.596323,243.018494,155.492508,236.954309,156.745312C218.949173,160.461155,212.501284,157.886965,210.383520,156.327908C224.378975,135.007187,235.891880,109.236323,242.102688,85.190651C245.045210,73.800721,246.670485,63.223132,246.802919,54.601903C246.949543,45.137589,245.338457,38.184203,242.014005,33.936259C228.611547,16.810864,208.942115,7.625016,185.131751,7.372564C168.763122,7.188693,154.933210,11.378106,152.252009,12.555824C146.605820,11.151667,140.450587,10.289663,133.750245,10.179695C121.461654,9.981044,110.840314,12.922975,102.045857,18.919169C98.225958,17.497866,88.353700,14.108970,76.281497,12.164434C55.408924,8.803326,38.823316,11.349728,26.987012,19.735058C12.863852,29.740933,6.343834,47.626642,7.607279,72.894374C8.032370,81.396175,12.875677,107.547788,20.520203,132.593219C30.582245,165.556915,41.519298,184.218309,53.028065,188.056536C54.374873,188.505866,55.928610,188.820397,57.640794,188.820397C61.839076,188.820397,66.985681,186.927889,72.340988,180.490051C81.235954,169.788896,89.540878,160.821801,92.602236,157.563566C97.126282,159.992314,102.095520,161.347991,107.179455,161.483972C107.188323,161.616998,107.201921,161.750023,107.213746,161.882457C106.193885,163.092102,105.357303,164.152166,104.644286,165.057330C101.122365,169.528166,100.389247,170.458753,89.051935,172.793497C85.827399,173.458624,77.261155,175.224018,77.136407,181.227898C76.999834,187.787529,87.260527,190.542633,88.429968,190.834697C92.504092,191.854559,96.428637,192.357691,100.171677,192.357691C109.275344,192.357099,117.285838,189.365506,123.688203,183.576831C123.490734,206.962697,124.466254,230.006836,127.273977,237.028212C129.573247,242.775501,135.191649,256.822984,152.938420,256.821801C155.541580,256.821801,158.408425,256.519095,161.561423,255.843326C180.082106,251.872074,188.124527,243.686577,191.236139,225.640055C192.901025,215.995418,195.758411,192.963695,197.101672,180.610069C199.937774,181.494540,203.589173,181.899529,207.536185,181.898938C215.768388,181.898938,225.266993,180.150097,231.224166,177.384942C237.915640,174.277469,249.991982,166.650679,247.802088,160.025423L247.802088,160.025423ZM203.696185,76.544591C203.634697,80.191852,203.132748,83.502707,202.600647,86.959002C202.028342,90.676028,201.435935,94.518984,201.286947,99.184333C201.139732,103.724342,201.706716,108.444674,202.255372,113.008924C203.363326,122.228471,204.500249,131.720573,200.098587,141.086744C199.414540,139.871778,198.754143,138.546254,198.148730,137.078245C197.601848,135.752129,196.414079,133.621949,194.769885,130.673515C188.370476,119.197857,173.385312,92.324360,181.056443,81.358337C183.340933,78.093598,189.139658,74.738402,203.696185,76.544591L203.696185,76.544591ZM186.052286,14.758134C207.386014,15.229340,224.261321,23.210272,236.209958,38.478042C245.373931,50.189007,235.282919,103.476028,206.069949,149.446651C205.781432,149.080092,205.487594,148.709986,205.183704,148.330420C205.062503,148.178476,204.938938,148.024166,204.814189,147.868083C212.362938,135.400942,210.886651,123.066236,209.572952,112.129774C209.033164,107.641792,208.523529,103.402716,208.653007,99.421413C208.787215,95.200074,209.345330,91.581192,209.884527,88.081146C210.548471,83.767575,211.223058,79.305016,211.036822,74.043714C211.175760,73.492102,211.231926,72.839981,211.159206,72.066069C210.683861,67.020563,204.924157,51.922476,193.183630,38.255150C186.762346,30.780896,177.396767,22.415667,164.609774,16.773617C170.109931,15.633737,177.631483,14.570716,186.052286,14.758134L186.052286,14.758134ZM66.674106,175.777995C60.774282,182.871501,56.699566,181.512277,55.359852,181.065903C46.629247,178.153533,36.499806,159.702023,27.568776,130.441755C19.840887,105.123769,15.324527,79.665072,14.967427,72.526042C13.838781,49.948379,19.311741,34.212952,31.234956,25.757266C50.638928,11.996527,82.541376,20.232868,95.360296,24.410457C95.175834,24.591963,94.984277,24.762236,94.801589,24.946697C73.766430,46.191150,74.265423,82.487575,74.316859,84.705848C74.315085,85.561940,74.386624,86.773949,74.485358,88.441201C74.847187,94.545589,75.520591,105.907732,73.721497,118.775132C72.048924,130.732046,75.734614,142.435326,83.832019,150.883917C84.670374,151.758337,85.545386,152.579547,86.449367,153.352277C82.844674,157.212379,75.011547,165.747880,66.674106,175.777995L66.674106,175.777995ZM89.153035,145.784610C82.626513,138.975483,79.662707,129.503483,81.020157,119.795584C82.920351,106.202753,82.218568,94.364674,81.841958,88.004878C81.789339,87.115086,81.742633,86.335261,81.714845,85.719797C84.788028,82.995436,99.028841,75.364508,109.184296,77.691566C113.819492,78.753404,116.642587,81.908767,117.816758,87.337386C123.893358,115.440037,118.621413,127.153367,114.385293,136.565654C113.512055,138.504868,112.687298,140.337663,111.982559,142.234309L111.436859,143.699954C110.054577,147.406337,108.768665,150.851991,107.971695,154.124416C101.034273,154.103132,94.284859,151.139917,89.153035,145.784610L89.153035,145.784610ZM90.217829,183.685025C88.192296,183.178938,86.370143,182.299788,85.301210,181.570808C86.193958,181.150448,87.783169,180.579326,90.538864,180.011751C103.876286,177.265515,105.935520,175.328074,110.433552,169.616850C111.465238,168.307880,112.634088,166.823316,114.252859,165.015353C114.253450,165.014171,114.254042,165.013580,114.254633,165.012988C116.666236,162.313460,117.768868,162.771067,119.768979,163.600554C121.390115,164.271594,122.968684,166.303039,123.608979,168.539048C123.911686,169.594975,124.252231,171.599815,123.138956,173.158873C113.742633,186.314790,100.051067,186.145700,90.217829,183.685025L90.217829,183.685025ZM160.016554,248.637487C143.700545,252.133395,137.923695,243.808370,134.116804,234.291436C131.659677,228.146845,130.452397,200.440314,131.309081,169.843880C131.320314,169.436527,131.262374,169.043363,131.150042,168.673848C131.052490,167.960240,130.902319,167.238356,130.694208,166.511741C129.419529,162.059824,126.315012,158.335704,122.590300,156.792018C121.110467,156.178919,118.393792,155.053820,115.129644,155.888628C115.826106,153.020600,117.033386,149.782467,118.341764,146.275326L118.891012,144.799630C119.509432,143.136517,120.284527,141.413691,121.105145,139.590356C125.538143,129.741746,131.609423,116.252970,125.020231,85.779510C122.551871,74.365931,114.310208,68.792462,101.815871,70.086651C94.325062,70.861746,87.472776,73.884083,84.054910,75.616961C83.320019,75.989432,82.647797,76.348896,82.019917,76.699492C82.973561,65.199002,86.578254,43.707418,100.060527,30.109857C108.548730,21.548933,119.854115,17.321090,133.628453,17.548711C160.768591,17.993312,178.172453,31.921367,187.994457,43.527686C196.457829,53.529423,201.040998,63.603880,202.870245,69.037229C189.115418,67.638984,179.760480,70.354476,175.017681,77.134042C164.700822,91.881534,180.662097,120.506236,188.333229,134.262836C189.739751,136.784406,190.954125,138.963067,191.336055,139.888924C193.833977,145.943058,197.067972,149.984665,199.429321,152.935464C200.152979,153.839446,200.855353,154.716231,201.389229,155.481866C197.223464,156.683233,189.740342,159.457848,190.422023,173.328554C189.872185,180.289035,185.960647,212.874938,183.974134,224.387843C181.351464,239.597672,175.754346,245.263372,160.016554,248.637487L160.016554,248.637487ZM228.120831,170.700564C223.861062,172.678208,216.732083,174.161589,209.959612,174.479667C202.479446,174.830263,198.671963,173.641903,197.776259,172.911150C197.355307,164.267455,200.573339,163.364065,203.978199,162.408055C204.513256,162.257293,205.035307,162.111261,205.539030,161.935076C205.852379,162.189894,206.195289,162.442938,206.570716,162.690661C212.582873,166.658956,223.306494,167.087002,238.444785,163.962383C238.500360,163.950559,238.555935,163.939917,238.610919,163.928684C236.569423,165.837746,233.075289,168.400111,228.120831,170.700564L228.120831,170.700564Z" fill="rgb(255,255,255)" stroke="none" stroke-width="1"/></g></svg>