<svg id="eja8Z7DHECY1" xmlns="http://www.w3.org/2000/svg" xmlns:xlink="http://www.w3.org/1999/xlink" viewBox="0 0 256 373" shape-rendering="geometricPrecision" text-rendering="geometricPrecision"><g id="eja8Z7DHECY2" transform="matrix(1 0 0 1 -0.00000000000006 72.61635613499999)"><path id="eja8Z7DHECY3" d="M210.483381,73.823637C207.827698,72.909550,205.075867,72.044676,202.242470,71.226737C202.708172,69.326110,203.135596,67.450089,203.515631,65.605966C209.753843,35.324892,205.675082,10.930248,191.747328,2.898493C178.392359,-4.802897,156.551327,3.227036,134.492936,22.423778C132.371761,24.269723,130.244662,26.224120,128.118477,28.272386C126.701777,26.917204,125.287358,25.607590,123.876584,24.354935C100.758745,3.828529,77.586680,-4.821579,63.672597,3.233415C50.330387,10.957133,46.379216,33.890422,51.994518,62.588021C52.536773,65.359901,53.170619,68.190564,53.887398,71.068617C50.607894,71.999564,47.441853,72.992028,44.412516,74.047830C17.309330,83.497195,0,98.306683,0,113.667995C0,129.533287,18.581579,145.446423,46.811653,155.095373C49.039455,155.856809,51.351103,156.576778,53.733380,157.260293C52.960096,160.373020,52.287518,163.423318,51.722935,166.398431C46.368735,194.597975,50.550023,216.989464,63.856690,224.664425C77.601262,232.590464,100.668520,224.443422,123.130185,204.809231C124.905501,203.257196,126.687196,201.611293,128.472081,199.886102C130.785552,202.113904,133.095375,204.222319,135.392897,206.199955C157.149630,224.922338,178.637969,232.482469,191.932332,224.786092C205.663234,216.837268,210.125675,192.783470,204.332202,163.518100C203.889740,161.283006,203.374826,158.999610,202.796573,156.675661C204.416503,156.196743,206.006814,155.702335,207.557482,155.188332C236.905331,145.464650,256,129.745175,256,113.667995C256,98.251091,238.132466,83.341809,210.483381,73.823637L210.483381,73.823637ZM204.118035,144.807565C202.718197,145.270987,201.281904,145.718918,199.818271,146.153177C196.578411,135.896354,192.205739,124.989735,186.854729,113.721310C191.961041,102.721277,196.164656,91.954096,199.313837,81.763801C201.932610,82.521591,204.474374,83.320848,206.923636,84.164306C230.613348,92.319549,245.063763,104.377206,245.063763,113.667995C245.063763,123.564379,229.457753,136.411268,204.118035,144.807565L204.118035,144.807565ZM193.603754,165.642007C196.165567,178.582766,196.531475,190.282717,194.834536,199.429057C193.309843,207.647640,190.243595,213.127150,186.452366,215.321689C178.384612,219.991462,161.131788,213.921395,142.525146,197.909832C140.392124,196.074366,138.243609,194.114502,136.088259,192.040261C143.301619,184.151133,150.510878,174.979732,157.546980,164.793993C169.922699,163.695814,181.614905,161.900447,192.218042,159.449363C192.740247,161.555956,193.204126,163.621993,193.603754,165.642007L193.603754,165.642007ZM87.276187,214.514686C79.393893,217.298414,73.116038,217.378157,69.321163,215.189998C61.246119,210.532528,57.889150,192.554265,62.468243,168.438039C62.992727,165.676183,63.617004,162.839142,64.336517,159.939216C74.823458,162.258154,86.429995,163.926841,98.835333,164.932519C105.918826,174.899534,113.336329,184.060910,120.811247,192.082640C119.178102,193.659280,117.551336,195.160280,115.933685,196.574699C106.001303,205.256705,96.047961,211.416540,87.276187,214.514686L87.276187,214.514686ZM50.348614,144.746959C37.865811,140.480460,27.557040,134.935332,20.490863,128.884403C14.141466,123.446815,10.935782,118.048415,10.935782,113.667995C10.935782,104.346220,24.833461,92.456252,48.012360,84.374828C50.824796,83.394212,53.768922,82.470100,56.824234,81.602036C60.027640,92.022448,64.229889,102.917218,69.301113,113.934110C64.164272,125.114590,59.902329,136.182975,56.667481,146.725506C54.489347,146.099407,52.379109,145.440499,50.348614,144.746959L50.348614,144.746959ZM62.727068,60.487807C57.916035,35.900412,61.111239,17.352553,69.151651,12.698273C77.716092,7.740056,96.654465,14.809422,116.614922,32.532962C117.890816,33.665774,119.171723,34.851444,120.456275,36.078126C113.018267,44.064769,105.668660,53.157339,98.648051,63.065570C86.608165,64.181522,75.083193,65.974153,64.486891,68.374657C63.820691,65.694823,63.230590,63.061924,62.727068,60.487807L62.727068,60.487807ZM173.153901,87.755037C170.620796,83.379630,168.020249,79.107663,165.369124,74.952348C173.537126,75.984911,181.362914,77.355586,188.712066,79.032932C186.505679,86.104121,183.755673,93.497473,180.518546,101.076741C178.196419,96.668070,175.740322,92.222945,173.153901,87.755037L173.153901,87.755037ZM128.122121,43.893890C133.166461,49.358819,138.218091,55.460328,143.186789,62.080397C138.179814,61.843901,133.110868,61.720868,128.000001,61.720868C122.937434,61.720868,117.905854,61.841167,112.929865,62.073562C117.903575,55.515009,122.998950,49.421702,128.122121,43.893890L128.122121,43.893890ZM82.801898,87.830679C80.271526,92.218389,77.860997,96.639363,75.575324,101.068539C72.390600,93.515700,69.666110,86.088628,67.440586,78.917190C74.744625,77.282678,82.533505,75.946179,90.649560,74.933210C87.961068,79.126801,85.339105,83.430211,82.801898,87.829768L82.801898,87.830679L82.801898,87.830679ZM90.883322,153.182899C82.497962,152.247395,74.591974,150.979704,67.289757,149.390303C69.550824,142.090820,72.335464,134.505173,75.587627,126.789657C77.879225,131.215644,80.299323,135.638441,82.845188,140.035720L82.845643,140.035720C85.438899,144.515476,88.125568,148.903640,90.883322,153.182899L90.883322,153.182899ZM128.424691,184.213105C123.241370,178.620587,118.071264,172.434323,113.021912,165.780078C117.923624,165.972373,122.921029,166.070800,128.000001,166.070800C133.217953,166.070800,138.376211,165.953235,143.453360,165.727219C138.468257,172.501308,133.434855,178.697141,128.424691,184.213105L128.424691,184.213105ZM180.622896,126.396409C184.044571,134.195313,186.929004,141.741317,189.219234,148.916400C181.796719,150.609693,173.782736,151.973534,165.339049,152.986959C167.996555,148.775595,170.619884,144.430263,173.197646,139.960532C175.805484,135.438399,178.281630,130.909430,180.622896,126.396409L180.622896,126.396409ZM163.724586,134.496971C159.722835,141.435557,155.614455,148.059271,151.443648,154.311611C143.847063,154.854776,135.998946,155.134562,128.000001,155.134562C120.033408,155.134562,112.284171,154.887129,104.822013,154.402745C100.483060,148.068386,96.285368,141.425078,92.309134,134.556664L92.310046,134.556664C88.344292,127.706935,84.694323,120.799333,81.387023,113.930466C84.693412,107.045648,88.333812,100.130301,92.276781,93.292874L92.275870,93.294241C96.229319,86.438587,100.390102,79.827632,104.688954,73.532916C112.302398,72.957396,120.109505,72.657106,127.999545,72.657106L128.000001,72.657106C135.925583,72.657106,143.742714,72.959675,151.353879,73.540207C155.587114,79.788899,159.719645,86.378438,163.688588,93.235003C167.702644,100.168578,171.389978,107.037901,174.724618,113.775080C171.400003,120.627999,167.720871,127.566587,163.724586,134.496971L163.724586,134.496971ZM186.284677,12.372920C194.857321,17.316555,198.191049,37.254227,192.804953,63.398669C192.461372,65.066901,192.074504,66.766119,191.654369,68.488121C181.033460,66.037492,169.500286,64.213875,157.425315,63.081063C150.391035,53.063925,143.101577,43.957229,135.784778,36.073113C137.751934,34.180689,139.716356,32.376209,141.672575,30.673346C160.572216,14.225701,178.236518,7.731854,186.284677,12.372920L186.284677,12.372920ZM128.000001,90.808070C140.624975,90.808070,150.859926,101.042565,150.859926,113.667995C150.859926,126.292969,140.624975,136.527922,128.000001,136.527922C115.375026,136.527922,105.140075,126.292969,105.140075,113.667995C105.140075,101.042565,115.375026,90.808070,128.000001,90.808070L128.000001,90.808070Z" fill="rgb(0,0,0)" stroke="none" stroke-width="1"/></g></svg>