<svg id="ej2dGHWRc7q1" xmlns="http://www.w3.org/2000/svg" xmlns:xlink="http://www.w3.org/1999/xlink" viewBox="0 0 256 373" shape-rendering="geometricPrecision" text-rendering="geometricPrecision"><g id="ej2dGHWRc7q2" transform="matrix(1 0 0 1 -0.10051536500006 90.31879425000001)"><path id="ej2dGHWRc7q3" d="M220.281239,110.513661C211.374863,110.560291,203.634244,112.705282,197.152641,115.876138C194.774499,111.166485,192.396357,106.969763,191.976685,103.892168C191.510383,100.301639,190.950820,98.110018,191.510383,93.820036C192.069945,89.530055,194.587978,83.421494,194.541348,82.955191C194.494718,82.488889,193.981785,80.297268,188.852459,80.250637C183.723133,80.204007,179.293260,81.229872,178.780328,82.582149C178.267395,83.934426,177.288160,87.012022,176.635337,90.182878C175.749362,94.845902,166.376685,111.492896,161.014208,120.212750C159.288889,116.808743,157.796721,113.824408,157.470310,111.446266C157.004007,107.855738,156.444444,105.664117,157.004007,101.374135C157.563570,97.084153,160.081603,90.975592,160.034973,90.509290C159.988342,90.042987,159.475410,87.851366,154.346084,87.804736C149.216758,87.758106,144.786885,88.783971,144.273953,90.136248C143.761020,91.488525,143.201457,94.659381,142.128962,97.736976C141.056466,100.814572,128.606193,128.606193,125.342077,135.787250C123.663388,139.471038,122.217851,142.408743,121.191985,144.413843L121.191985,144.413843C121.191985,144.413843,121.145355,144.553734,121.005464,144.786885C120.119490,146.512204,119.606557,147.444809,119.606557,147.444809C119.606557,147.444809,119.606557,147.444809,119.606557,147.491439C118.907104,148.750455,118.161020,149.916211,117.787978,149.916211C117.508197,149.916211,116.995264,146.558834,117.881239,141.989071C119.746448,132.336612,124.176321,117.321676,124.129690,116.808743C124.129690,116.528962,124.969035,113.917668,121.238616,112.565392C117.601457,111.213115,116.295811,113.451366,115.969399,113.451366C115.642987,113.451366,115.409836,114.244080,115.409836,114.244080C115.409836,114.244080,119.466667,97.363934,107.669217,97.363934C100.301639,97.363934,90.136248,105.430965,85.100182,112.705282C81.929326,114.430601,75.167942,118.114390,67.940255,122.077960C65.189071,123.616758,62.344627,125.155556,59.686703,126.601093C59.500182,126.414572,59.313661,126.181421,59.127140,125.994900C44.858288,110.746812,18.465574,99.975228,19.584699,79.504554C20.004372,72.043716,22.569035,52.459016,70.271767,28.677596C109.534426,9.326047,140.776685,14.688525,146.185792,26.579235C153.926412,43.552641,129.445537,75.074681,88.877231,79.644444C73.395993,81.369763,65.282331,75.401093,63.230601,73.162841C61.085610,70.831330,60.759198,70.691439,59.966484,71.157741C58.660838,71.857195,59.500182,73.955556,59.966484,75.167942C61.178871,78.338798,66.168306,83.934426,74.608379,86.685610C82.069217,89.110383,100.208379,90.462659,122.171220,81.975956C146.745355,72.463388,165.957013,46.024044,160.314754,23.874681C154.672495,1.398907,117.368306,-6.015301,82.069217,6.528233C61.085610,13.989071,38.330055,25.739891,21.962841,41.034608C2.518033,59.220401,-0.559563,75.028051,0.699454,81.649545C5.222587,105.151184,37.630601,120.445902,50.593807,131.777049C49.940984,132.150091,49.334790,132.476503,48.821858,132.756284C42.340255,135.973770,17.626230,148.890346,11.471038,162.553005C4.476503,178.034244,12.590164,189.132240,17.952641,190.624408C34.599636,195.240801,51.712933,186.940619,60.899089,173.231330C70.085246,159.522040,68.966120,141.709290,64.722769,133.548998C64.676138,133.455738,64.629508,133.362477,64.536248,133.269217C66.214936,132.289982,67.940255,131.264117,69.618944,130.284882C72.929690,128.326412,76.193807,126.507832,78.991621,125.015665C77.406193,129.352277,76.240437,134.528233,75.680874,141.989071C74.981421,150.755556,78.571949,162.133333,83.281603,166.609836C85.379964,168.568306,87.851366,168.614936,89.436794,168.614936C94.939162,168.614936,97.410565,164.045173,100.161749,158.636066C103.519126,152.014572,106.550091,144.320583,106.550091,144.320583C106.550091,144.320583,102.773042,165.117668,113.031694,165.117668C116.762113,165.117668,120.539162,160.268124,122.217851,157.796721L122.217851,157.843352C122.217851,157.843352,122.311111,157.703461,122.497632,157.377049C122.870674,156.770856,123.103825,156.397814,123.103825,156.397814L123.103825,156.304554C124.595993,153.693260,127.953370,147.771220,132.942805,137.932240C139.377778,125.248816,145.579599,109.394536,145.579599,109.394536C145.579599,109.394536,146.139162,113.264845,148.051002,119.699818C149.170128,123.476867,151.501639,127.626958,153.366849,131.637158C151.874681,133.735519,150.942077,134.901275,150.942077,134.901275C150.942077,134.901275,150.942077,134.901275,150.988707,134.947905C149.776321,136.533333,148.470674,138.258652,147.025137,139.937341C141.942441,145.999271,135.880510,152.947177,135.041166,154.952277C134.061931,157.330419,134.295082,159.055738,136.160291,160.454645C137.512568,161.480510,139.937341,161.620401,142.408743,161.480510C146.978506,161.154098,150.195993,160.034973,151.781421,159.335519C154.252823,158.449545,157.143898,157.097268,159.848452,155.092168C164.837887,151.408379,167.868852,146.139162,167.589071,139.191257C167.449180,135.367577,166.190164,131.543898,164.651366,127.953370C165.117668,127.300546,165.537341,126.647723,166.003643,125.994900C173.884153,114.477231,179.992714,101.840437,179.992714,101.840437C179.992714,101.840437,180.552277,105.710747,182.464117,112.145719C183.396721,115.409836,185.308561,118.953734,186.987250,122.404372C179.573042,128.419672,175.003279,135.414208,173.371220,139.983971C170.433515,148.470674,172.718397,152.294353,177.055009,153.180328C179.013479,153.600000,181.811293,152.667395,183.863024,151.781421C186.474317,150.942077,189.551913,149.496539,192.489617,147.351548C197.479053,143.667760,202.281967,138.538434,202.002186,131.590528C201.862295,128.419672,201.022951,125.295446,199.857195,122.264481C206.152277,119.653188,214.265938,118.207650,224.617851,119.420036C246.813843,122.031330,251.197086,135.880510,250.357741,141.709290C249.518397,147.538069,244.855373,150.708925,243.316576,151.688160C241.777778,152.667395,241.264845,152.993807,241.404736,153.693260C241.591257,154.719126,242.337341,154.672495,243.642987,154.485974C245.461566,154.159563,255.300546,149.776321,255.720219,139.051366C256.419672,125.342077,243.363206,110.373770,220.281239,110.513661L220.281239,110.513661ZM49.055009,168.241894C41.687432,176.262295,31.428780,179.293260,26.998907,176.728597C22.242623,173.977413,24.107832,162.133333,33.154098,153.646630C38.656466,148.470674,45.744262,143.667760,50.453916,140.730055C51.526412,140.077231,53.111840,139.144627,55.023679,137.978871C55.350091,137.792350,55.536612,137.699089,55.536612,137.699089L55.536612,137.699089C55.909654,137.465938,56.282696,137.232787,56.655738,136.999636C59.966484,149.123497,56.795628,159.801821,49.055009,168.241894L49.055009,168.241894ZM102.679781,131.777049C100.115118,138.025501,94.752641,154.019672,91.488525,153.133698C88.690710,152.387614,86.965392,140.263752,90.928962,128.279781C92.934062,122.264481,97.177414,115.083424,99.648816,112.285610C103.659016,107.809107,108.088889,106.316940,109.161384,108.135519C110.513661,110.513661,104.265209,127.860109,102.679781,131.777049L102.679781,131.777049ZM146.931876,152.947177C145.859381,153.506740,144.833515,153.879781,144.367213,153.600000C144.040801,153.413479,144.833515,152.667395,144.833515,152.667395C144.833515,152.667395,150.382514,146.698725,152.574135,143.994171C153.833151,142.408743,155.325319,140.543534,156.910747,138.445173L156.910747,139.051366C156.910747,146.185792,150.009472,150.988707,146.931876,152.947177L146.931876,152.947177ZM181.065209,145.159927C180.272495,144.600364,180.412386,142.735155,183.070310,136.906375C184.096175,134.621494,186.520947,130.797814,190.671038,127.114026C191.137341,128.606193,191.463752,130.051730,191.417122,131.404007C191.370492,140.403643,184.935519,143.761020,181.065209,145.159927L181.065209,145.159927Z" fill="rgb(0,0,0)" stroke="none" stroke-width="1"/></g></svg>