<?xml version="1.0" standalone="no"?>
<!DOCTYPE svg PUBLIC "-//W3C//DTD SVG 20010904//EN"
 "http://www.w3.org/TR/2001/REC-SVG-20010904/DTD/svg10.dtd">
<svg version="1.0" xmlns="http://www.w3.org/2000/svg"
 width="225.000000pt" height="601.000000pt" viewBox="0 0 225.000000 601.000000"
 preserveAspectRatio="xMidYMid meet">
<metadata>
Created by potrace 1.16, written by Peter Selinger 2001-2019
</metadata>
<g transform="translate(0.000000,601.000000) scale(0.100000,-0.100000)"
fill="#000000" stroke="none">
<path d="M785 5985 c-46 -25 -73 -54 -100 -109 -49 -98 -28 -270 48 -398 14
-24 67 -92 118 -153 195 -232 187 -293 -55 -421 -177 -93 -236 -171 -236 -314
0 -62 5 -86 28 -135 35 -73 71 -106 186 -170 149 -84 193 -132 222 -244 30
-121 -7 -190 -164 -303 -220 -157 -368 -304 -486 -480 -144 -217 -204 -378
-213 -579 -8 -163 20 -286 91 -398 l27 -42 -121 -172 -120 -172 0 -947 0 -948
1120 0 1120 0 0 948 0 947 -168 240 -167 240 -43 3 c-23 2 -42 5 -42 7 0 2 32
53 70 112 91 139 182 325 214 435 52 181 54 420 6 598 -12 41 -58 152 -103
245 l-82 170 1 95 c0 79 8 121 44 255 39 142 44 172 44 270 1 89 -3 123 -22
180 -55 164 -171 284 -410 425 -125 74 -191 171 -262 391 -50 153 -86 216
-174 305 -93 93 -164 128 -266 132 -55 2 -83 -1 -105 -13z m1173 -3885 l111
-160 -939 0 -939 0 71 103 72 103 75 -51 c160 -107 378 -138 683 -99 157 20
375 75 454 114 34 16 90 57 125 89 62 58 66 60 120 61 l55 0 112 -160z m172
-1135 l0 -855 -1000 0 -1000 0 0 855 0 855 1000 0 1000 0 0 -855z"/>
</g>
</svg>
