<?xml version="1.0" standalone="no"?>
<!DOCTYPE svg PUBLIC "-//W3C//DTD SVG 20010904//EN"
 "http://www.w3.org/TR/2001/REC-SVG-20010904/DTD/svg10.dtd">
<svg version="1.0" xmlns="http://www.w3.org/2000/svg"
 width="620.000000pt" height="606.000000pt" viewBox="0 0 620.000000 606.000000"
 preserveAspectRatio="xMidYMid meet">
<metadata>
Created by potrace 1.16, written by Peter Selinger 2001-2019
</metadata>
<g transform="translate(0.000000,606.000000) scale(0.100000,-0.100000)"
fill="#000000" stroke="none">
<path d="M5683 5855 c-20 -23 -15 -64 12 -90 13 -14 29 -25 35 -25 5 0 24 -13
41 -30 31 -29 32 -32 26 -91 -3 -40 -13 -72 -26 -90 -12 -16 -21 -33 -21 -39
0 -5 -4 -10 -10 -10 -5 0 -10 -7 -10 -16 0 -9 -47 -63 -105 -120 -58 -58 -105
-109 -105 -115 0 -6 -9 -18 -20 -27 -37 -31 -90 -150 -90 -203 0 -27 5 -49 10
-49 6 0 10 -11 10 -25 0 -26 53 -84 78 -85 6 0 12 -4 12 -10 0 -5 14 -10 30
-10 17 0 30 -4 30 -10 0 -5 16 -10 35 -10 19 0 35 -4 35 -10 0 -5 18 -10 40
-10 22 0 40 -4 40 -10 0 -5 14 -10 30 -10 17 0 30 -4 30 -10 0 -5 6 -10 13
-10 8 0 24 -9 37 -20 13 -11 27 -20 32 -20 4 0 8 -7 8 -15 0 -8 5 -15 10 -15
6 0 10 -20 10 -44 0 -25 -4 -48 -10 -51 -5 -3 -10 -15 -10 -26 0 -10 -4 -19
-10 -19 -5 0 -10 -5 -10 -10 0 -11 -45 -60 -55 -60 -3 0 -15 -9 -27 -20 -12
-11 -31 -20 -43 -20 -11 0 -25 -4 -31 -9 -5 -4 -34 -16 -64 -26 -30 -9 -63
-21 -72 -26 -10 -5 -25 -9 -33 -9 -8 0 -15 -4 -15 -10 0 -5 -9 -10 -20 -10
-11 0 -20 -4 -20 -10 0 -5 -7 -10 -15 -10 -8 0 -15 -4 -15 -10 0 -5 -4 -10
-10 -10 -5 0 -10 9 -10 20 0 11 -4 20 -10 20 -5 0 -10 25 -10 55 0 30 -4 55
-10 55 -5 0 -10 23 -10 50 0 28 -4 50 -10 50 -5 0 -10 20 -10 45 0 25 -4 45
-10 45 -5 0 -10 14 -10 30 0 17 -4 30 -10 30 -5 0 -10 9 -10 19 0 29 -52 181
-62 181 -4 0 -8 7 -8 15 0 20 -45 65 -65 65 -11 0 -15 -11 -15 -40 0 -22 -3
-40 -7 -40 -5 0 -16 -20 -26 -45 -11 -25 -23 -45 -28 -45 -5 0 -9 -5 -9 -12 0
-17 -249 -260 -285 -278 -16 -8 -37 -23 -46 -32 -9 -10 -24 -18 -33 -18 -9 0
-16 -4 -16 -10 0 -5 -9 -10 -20 -10 -11 0 -20 -4 -20 -10 0 -5 -7 -10 -15 -10
-8 0 -23 -4 -33 -9 -69 -34 -136 -61 -152 -61 -11 0 -20 -4 -20 -10 0 -5 -18
-10 -40 -10 -22 0 -40 -4 -40 -10 0 -5 -13 -10 -30 -10 -16 0 -30 -4 -30 -10
0 -5 -20 -10 -45 -10 -25 0 -45 -4 -45 -10 0 -5 -24 -10 -54 -10 -30 0 -57 -4
-60 -9 -8 -12 -336 -13 -336 -1 0 6 -66 10 -170 10 -107 0 -170 4 -170 10 0 6
-18 10 -40 10 -22 0 -40 5 -40 10 0 6 -11 10 -25 10 -14 0 -25 5 -25 10 0 6
-9 10 -20 10 -11 0 -20 5 -20 10 0 6 -7 10 -15 10 -9 0 -21 4 -28 10 -59 48
-77 60 -89 60 -7 0 -20 9 -28 20 -8 11 -20 20 -28 20 -18 0 -42 -25 -42 -43 0
-7 -3 -17 -7 -21 -4 -4 -15 -46 -25 -94 -21 -102 -26 -358 -8 -450 24 -124 44
-207 52 -216 4 -6 8 -20 8 -33 0 -13 5 -23 10 -23 6 0 10 -9 10 -20 0 -11 5
-20 10 -20 18 0 10 -31 -15 -55 -13 -14 -27 -25 -31 -25 -4 0 -22 -11 -40 -25
-18 -14 -37 -25 -43 -25 -6 0 -11 -4 -11 -10 0 -5 -18 -10 -40 -10 l-40 0 0
65 c0 37 4 65 10 65 6 0 10 16 10 35 0 19 5 35 10 35 6 0 10 18 10 40 0 22 -4
40 -10 40 -5 0 -10 7 -10 16 0 18 -16 36 -47 52 -22 12 -139 -2 -157 -19 -6
-5 -20 -9 -33 -9 -13 0 -23 -4 -23 -10 0 -5 -8 -10 -18 -10 -10 0 -24 -9 -32
-20 -8 -11 -22 -20 -32 -20 -10 0 -18 -3 -18 -8 0 -8 -6 -11 -96 -57 -32 -16
-60 -33 -62 -37 -2 -5 -21 -8 -43 -8 l-39 0 0 85 c0 50 -4 85 -10 85 -5 0 -10
9 -10 20 0 12 -9 30 -20 42 -11 12 -20 28 -20 35 0 7 -7 13 -15 13 -8 0 -15 5
-15 10 0 6 -9 10 -20 10 -11 0 -20 5 -20 10 0 6 -22 10 -50 10 -27 0 -50 -4
-50 -10 0 -5 -11 -10 -25 -10 -14 0 -25 -4 -25 -10 0 -5 -8 -10 -18 -10 -10 0
-24 -9 -32 -20 -8 -11 -20 -20 -27 -20 -16 0 -93 -76 -93 -91 0 -6 -22 -31
-48 -57 l-48 -47 23 -23 c37 -36 79 -27 106 23 12 21 45 62 73 91 40 40 62 54
102 64 28 6 64 9 81 5 53 -11 63 -34 71 -155 7 -123 22 -153 84 -164 34 -7 96
10 96 25 0 5 9 9 20 9 11 0 20 5 20 10 0 6 8 10 18 10 10 0 24 9 32 20 8 11
22 20 32 20 10 0 18 4 18 8 0 5 16 14 35 22 19 8 35 17 35 21 0 4 20 15 45 26
25 10 45 21 45 26 0 4 9 7 20 7 11 0 20 5 20 10 0 18 31 10 55 -15 24 -23 25
-30 25 -149 0 -90 -3 -126 -12 -130 -10 -5 -10 -7 0 -12 6 -3 12 -12 12 -21 0
-36 58 -67 113 -58 49 8 127 37 127 48 0 4 7 7 16 7 8 0 33 18 54 40 40 41 80
53 80 24 0 -9 9 -25 21 -35 19 -16 20 -20 6 -34 -9 -8 -22 -15 -29 -15 -8 0
-36 -11 -64 -23 -27 -13 -64 -30 -81 -38 -18 -8 -33 -17 -33 -21 0 -5 -13 -8
-30 -8 -16 0 -30 -4 -30 -10 0 -5 -9 -10 -20 -10 -11 0 -20 -4 -20 -10 0 -5
-18 -10 -40 -10 -22 0 -40 -4 -40 -9 0 -11 -150 -24 -295 -25 -137 0 -285 13
-285 25 0 5 -16 9 -35 9 -19 0 -35 5 -35 10 0 6 -13 10 -30 10 -16 0 -30 5
-30 10 0 6 -13 10 -29 10 -16 0 -31 3 -33 8 -1 4 -37 24 -78 45 -101 50 -100
49 -209 157 -97 96 -121 127 -121 155 0 9 -11 27 -25 40 -24 25 -55 33 -55 15
0 -5 -6 -10 -14 -10 -20 0 -76 -55 -76 -74 0 -9 -4 -16 -10 -16 -5 0 -10 -13
-10 -30 0 -16 -4 -30 -10 -30 -5 0 -10 -16 -10 -35 0 -19 -4 -35 -10 -35 -5 0
-10 -13 -10 -29 0 -16 -6 -31 -12 -33 -18 -6 -18 -352 -1 -370 7 -6 13 -31 13
-55 0 -24 5 -43 10 -43 6 0 10 -16 10 -35 0 -19 5 -35 10 -35 6 0 10 -22 10
-50 0 -27 5 -50 10 -50 6 0 10 -13 10 -30 0 -34 -3 -34 -64 -19 -35 9 -53 8
-91 -5 -54 -19 -118 -80 -136 -131 -7 -19 -17 -35 -21 -35 -4 0 -8 -13 -8 -30
0 -16 -4 -30 -10 -30 -6 0 -10 -38 -10 -95 0 -57 -4 -95 -10 -95 -6 0 -10 -28
-10 -65 0 -37 -4 -65 -10 -65 -5 0 -10 -13 -10 -30 0 -16 -4 -30 -10 -30 -5 0
-10 -7 -10 -15 0 -32 -50 -95 -74 -95 -9 0 -16 -4 -16 -10 0 -15 -62 -11 -84
5 -30 23 -46 117 -46 273 0 88 -4 142 -10 142 -5 0 -10 7 -10 15 0 20 -45 65
-65 65 -8 0 -15 5 -15 10 0 6 -11 10 -25 10 -14 0 -25 -4 -25 -10 0 -5 -13
-10 -28 -10 -16 0 -34 -8 -42 -20 -8 -11 -20 -20 -27 -20 -7 0 -27 -13 -44
-30 -17 -16 -40 -32 -50 -35 -11 -4 -19 -11 -19 -16 0 -5 -9 -9 -20 -9 -11 0
-20 -4 -20 -10 0 -5 -9 -10 -20 -10 -11 0 -30 -6 -41 -12 -17 -10 -23 -10 -26
0 -3 6 -12 12 -21 12 -21 0 -72 102 -54 108 7 2 12 12 12 23 0 10 5 19 10 19
6 0 10 7 10 15 0 9 18 34 40 56 22 22 40 44 40 47 1 15 59 72 74 72 9 0 16 3
16 8 0 4 20 21 45 37 24 17 45 33 45 38 0 4 9 7 20 7 11 0 20 5 20 10 0 6 9
10 19 10 11 0 21 3 23 8 8 19 176 82 219 82 14 0 19 7 19 30 0 17 -4 30 -10
30 -5 0 -10 9 -10 20 0 16 -7 20 -35 20 -19 0 -35 -4 -35 -10 0 -5 -18 -10
-40 -10 -22 0 -40 -4 -40 -10 0 -5 -9 -10 -20 -10 -11 0 -20 -4 -20 -10 0 -5
-11 -10 -25 -10 -14 0 -25 -4 -25 -10 0 -5 -9 -10 -20 -10 -11 0 -20 -3 -20
-7 0 -5 -20 -17 -45 -28 -25 -11 -45 -23 -45 -27 0 -5 -8 -8 -18 -8 -10 0 -24
-9 -32 -20 -8 -11 -21 -20 -28 -20 -8 0 -27 -13 -42 -30 -15 -16 -31 -30 -34
-30 -12 0 -96 -84 -96 -96 0 -7 -4 -14 -8 -16 -5 -1 -21 -25 -35 -51 -22 -39
-27 -61 -27 -117 0 -70 16 -111 64 -167 27 -31 116 -50 160 -35 18 7 42 12 54
12 12 0 22 5 22 10 0 6 6 10 14 10 7 0 27 14 44 30 18 17 34 30 37 30 3 0 17
11 31 25 33 33 71 42 91 22 25 -24 32 -92 26 -247 -5 -137 -4 -148 18 -195 26
-56 60 -95 84 -95 8 0 15 -4 15 -10 0 -5 9 -10 20 -10 11 0 30 -6 41 -13 17
-9 23 -9 26 1 3 6 18 12 34 12 16 0 29 5 29 10 0 6 11 10 25 10 14 0 25 4 25
8 0 5 12 15 28 23 31 16 52 34 52 45 0 3 10 15 21 25 29 25 80 179 86 262 3
37 10 67 14 67 5 0 9 29 9 65 0 37 4 65 10 65 6 0 10 14 10 30 0 17 5 30 10
30 6 0 10 13 10 28 0 16 8 34 20 42 11 8 20 20 20 27 0 19 109 17 148 -3 36
-17 39 -26 17 -48 -8 -8 -15 -22 -15 -30 0 -9 -4 -16 -10 -16 -5 0 -10 -13
-10 -30 0 -16 -4 -30 -10 -30 -5 0 -10 -20 -10 -45 0 -25 -4 -45 -10 -45 -5 0
-10 -24 -10 -54 0 -30 -5 -58 -10 -61 -13 -8 -13 -82 0 -90 6 -3 10 -35 10
-71 0 -36 4 -64 10 -64 6 0 10 -13 10 -30 0 -16 3 -30 8 -30 4 0 14 -15 21
-32 21 -48 49 -86 109 -145 l52 -53 0 -90 c0 -53 4 -90 10 -90 6 0 10 -17 10
-39 0 -57 63 -241 82 -241 5 0 8 -9 8 -20 0 -11 5 -20 10 -20 6 0 10 -6 10
-14 0 -15 184 -206 199 -206 11 0 61 -47 61 -58 0 -5 14 -23 30 -40 17 -18 30
-36 30 -40 0 -5 8 -17 18 -28 10 -10 25 -34 32 -52 8 -17 18 -32 21 -32 3 0
14 -19 25 -42 10 -24 26 -50 36 -59 10 -9 18 -24 18 -33 0 -9 5 -16 10 -16 6
0 10 -8 10 -18 0 -10 9 -24 20 -32 11 -8 20 -19 20 -25 0 -14 136 -155 150
-155 6 0 18 -7 26 -15 9 -8 24 -15 34 -15 10 0 22 -4 25 -10 3 -6 48 -10 100
-10 65 0 95 -4 98 -12 4 -9 8 -10 14 -2 12 16 111 84 123 84 5 0 10 5 10 10 0
6 38 10 95 10 57 0 95 -4 95 -10 0 -5 14 -10 30 -10 17 0 30 -4 30 -8 0 -19
232 -22 238 -4 2 7 10 12 19 12 18 0 133 118 133 137 0 7 5 13 10 13 6 0 10 9
10 20 0 11 5 20 10 20 6 0 10 9 10 20 0 11 5 20 10 20 6 0 10 11 10 25 0 14 5
25 10 25 6 0 10 9 10 19 0 11 5 23 10 26 6 3 10 16 10 29 0 12 4 26 9 31 4 6
16 35 26 65 9 30 21 63 26 72 5 10 9 27 9 37 0 11 5 23 10 26 6 3 10 17 10 31
0 13 5 24 10 24 6 0 10 27 10 60 0 33 4 60 10 60 6 0 10 46 10 119 0 66 3 121
8 123 15 6 82 95 82 109 0 8 9 21 20 29 11 8 20 22 20 32 0 10 5 18 10 18 6 0
10 11 10 24 0 14 5 28 10 31 6 3 10 17 10 31 0 13 5 24 10 24 6 0 10 20 10 44
0 25 4 47 8 50 5 3 7 21 6 40 -2 26 1 36 11 36 8 0 15 -4 15 -10 0 -5 5 -10
10 -10 6 0 22 -10 35 -22 39 -38 69 -59 93 -64 12 -4 22 -10 22 -15 0 -5 8 -9
18 -9 10 0 24 -9 32 -20 8 -11 22 -20 32 -20 10 0 18 -4 18 -10 0 -5 9 -10 20
-10 11 0 20 -4 20 -8 0 -5 16 -17 35 -28 19 -10 35 -22 35 -26 0 -5 7 -8 16
-8 9 0 24 -8 33 -18 9 -9 28 -23 44 -31 15 -8 27 -18 27 -23 0 -4 5 -8 10 -8
6 0 16 -5 23 -10 47 -39 62 -50 78 -55 11 -4 19 -11 19 -16 0 -5 6 -9 13 -9 7
0 19 -9 27 -20 8 -12 26 -20 42 -20 15 0 28 -4 28 -10 0 -5 9 -10 20 -10 11 0
20 5 20 10 0 6 10 10 23 10 13 0 45 22 80 55 l57 55 135 0 c83 0 135 4 135 10
0 6 12 10 26 10 18 0 42 17 85 62 32 34 59 67 59 75 0 7 5 13 10 13 6 0 10 9
10 20 0 11 5 20 10 20 6 0 10 9 10 20 0 11 4 20 8 20 12 0 50 117 58 178 4 29
11 55 15 58 5 3 9 20 9 39 0 19 5 37 10 40 6 3 10 17 10 31 0 13 5 24 10 24 6
0 10 14 10 30 0 17 5 30 10 30 6 0 10 14 10 30 0 17 5 30 10 30 6 0 10 11 10
24 0 14 5 28 10 31 6 3 10 18 10 33 0 15 7 49 15 76 8 27 15 66 15 87 0 21 5
41 10 44 6 3 10 17 10 31 0 13 5 24 10 24 6 0 10 14 10 30 0 17 5 30 10 30 6
0 10 15 10 34 0 19 5 38 10 41 6 3 10 46 10 95 0 49 -4 92 -10 95 -5 3 -10 35
-10 71 0 36 -4 64 -10 64 -5 0 -10 10 -10 23 0 13 -4 27 -9 33 -4 5 -16 48
-26 95 -17 83 -17 89 0 143 10 31 22 56 26 56 5 0 9 34 9 75 0 43 4 75 10 75
6 0 10 9 10 20 0 11 -4 20 -10 20 -6 0 -10 33 -10 80 0 44 -4 88 -9 98 -5 9
-17 44 -26 77 -27 88 -75 186 -107 217 -15 14 -28 31 -28 37 0 7 -11 23 -25
37 -14 14 -25 27 -25 30 0 21 110 144 128 144 5 0 30 11 56 25 26 14 54 25 62
25 7 0 14 5 14 10 0 6 8 10 18 10 22 0 72 22 72 33 0 4 9 7 20 7 11 0 20 5 20
10 0 6 7 10 15 10 16 0 45 21 84 61 42 43 51 57 51 78 0 11 5 23 10 26 6 3 10
35 10 71 0 36 -4 64 -10 64 -5 0 -10 13 -10 28 0 26 -22 81 -42 107 -49 63
-67 79 -109 100 -27 14 -62 25 -79 25 -16 0 -30 5 -30 10 0 6 -15 10 -34 10
-19 0 -38 5 -41 10 -3 6 -20 10 -36 10 -37 0 -79 39 -79 75 0 14 5 25 10 25 6
0 10 10 10 21 0 12 8 29 18 38 10 9 31 34 47 56 17 22 38 47 47 56 10 9 18 22
18 28 0 7 18 30 40 51 22 21 40 42 40 47 0 4 11 20 25 35 14 15 25 34 25 43 0
8 5 15 10 15 6 0 10 9 10 20 0 11 3 20 8 20 10 0 32 50 32 72 0 10 5 18 10 18
6 0 10 18 10 40 0 22 5 40 10 40 19 0 11 65 -10 80 -11 8 -20 20 -20 27 0 19
-94 113 -113 113 -9 0 -17 5 -17 10 0 15 -53 11 -67 -5z m-827 -1646 c3 -5 16
-9 29 -9 13 0 27 -4 30 -10 3 -5 15 -10 26 -10 10 0 19 -4 19 -10 0 -5 11 -10
25 -10 14 0 25 -4 25 -10 0 -5 9 -10 20 -10 11 0 20 -4 20 -10 0 -5 9 -10 19
-10 11 0 21 -4 23 -9 2 -5 23 -21 48 -35 35 -20 40 -26 23 -26 -13 0 -23 4
-23 9 0 8 -73 25 -162 38 -21 3 -38 9 -38 14 0 12 -127 11 -135 -1 -3 -5 -17
-10 -29 -10 -13 0 -40 -11 -60 -25 -20 -14 -39 -25 -42 -25 -3 0 -19 -13 -34
-30 -15 -16 -34 -30 -40 -30 -7 0 -21 -10 -31 -22 -11 -11 -22 -18 -25 -15 -4
3 12 24 35 46 22 22 41 43 41 47 0 11 42 54 52 54 5 0 37 29 72 64 50 51 68
64 85 59 12 -3 24 -9 27 -14z m154 -339 c0 -5 14 -10 30 -10 17 0 30 -4 30
-10 0 -5 9 -10 20 -10 11 0 20 -4 20 -10 0 -5 7 -10 15 -10 8 0 15 -4 15 -10
0 -5 7 -10 15 -10 14 0 26 -9 88 -67 19 -18 23 -43 7 -43 -5 0 -10 5 -10 10 0
6 -9 10 -19 10 -11 0 -21 3 -23 8 -5 11 -161 62 -192 62 -14 0 -26 5 -26 10 0
6 -41 10 -104 10 -59 0 -108 -4 -111 -10 -3 -5 -21 -10 -40 -10 -18 0 -35 -5
-37 -10 -2 -6 -28 -13 -58 -17 -48 -6 -53 -5 -40 8 8 9 30 22 48 30 17 7 32
17 32 21 0 5 9 8 20 8 11 0 20 5 20 10 0 6 9 10 20 10 11 0 20 5 20 10 0 6 15
10 34 10 19 0 38 5 41 10 3 6 46 10 96 10 53 0 89 -4 89 -10z m-1280 -60 c0
-6 53 -10 140 -10 87 0 140 -4 140 -10 0 -5 -9 -10 -21 -10 -25 0 -179 -28
-234 -42 -91 -24 -195 -94 -195 -132 0 -8 -3 -16 -7 -18 -5 -1 -21 -30 -38
-62 -46 -90 -49 -96 -57 -96 -5 0 -8 -7 -8 -16 0 -20 -29 -49 -38 -39 -4 4 -1
10 6 12 6 3 12 15 12 28 0 13 5 27 10 30 6 3 10 22 10 41 0 19 5 34 10 34 6 0
10 14 10 30 0 17 4 38 9 48 5 9 17 44 26 77 9 33 20 68 26 77 5 10 9 22 9 28
0 29 27 39 108 40 48 0 82 -4 82 -10z m380 -146 c0 -11 -29 -34 -44 -34 -9 0
-16 -4 -16 -8 0 -5 -16 -17 -35 -28 -19 -10 -35 -22 -35 -26 0 -5 -7 -8 -16
-8 -16 0 -174 -158 -174 -173 0 -5 -13 -22 -30 -37 -16 -15 -30 -35 -30 -44 0
-9 -4 -16 -10 -16 -5 0 -10 -5 -10 -11 0 -6 -9 -22 -20 -36 -11 -14 -25 -44
-32 -67 -9 -32 -13 -36 -16 -18 -2 12 -8 22 -13 22 -5 0 -9 23 -9 50 0 28 5
50 10 50 6 0 10 13 10 29 0 29 20 96 43 141 24 49 150 160 181 160 9 0 16 5
16 10 0 6 9 10 20 10 11 0 20 5 20 10 0 6 14 10 30 10 17 0 30 5 30 10 0 6 28
10 65 10 36 0 65 -3 65 -6z m-210 -485 c0 -6 8 -19 18 -28 57 -54 56 -161 -2
-161 -9 0 -16 8 -16 20 0 11 -4 20 -10 20 -5 0 -10 9 -10 20 0 11 -4 20 -10
20 -5 0 -10 12 -10 26 0 14 -5 45 -11 69 -6 25 -9 52 -5 60 5 14 10 12 31 -9
14 -14 25 -30 25 -37z m960 -99 c0 -5 15 -10 34 -10 19 0 38 -4 41 -10 3 -5
17 -10 31 -10 13 0 24 -4 24 -10 0 -5 14 -10 30 -10 17 0 30 -4 30 -10 0 -5 9
-10 20 -10 11 0 20 -4 20 -10 0 -5 6 -10 13 -10 19 0 137 -115 137 -134 0 -23
-8 -20 -40 14 -15 17 -31 30 -34 30 -3 0 -29 16 -56 35 -27 19 -53 35 -57 35
-5 0 -22 14 -40 30 -18 17 -41 30 -52 30 -12 0 -21 5 -21 10 0 16 -50 11 -68
-7 -12 -12 -13 -18 -4 -21 6 -2 12 -11 12 -19 0 -22 -61 -73 -87 -73 -13 0
-23 -4 -23 -10 0 -5 -9 -10 -20 -10 -11 0 -20 -4 -20 -10 0 -5 -7 -10 -16 -10
-22 0 -41 -21 -48 -57 -7 -31 -39 -53 -77 -53 -21 0 -31 6 -84 58 -19 17 -39
32 -45 32 -5 0 -10 5 -10 10 0 6 -13 10 -30 10 -16 0 -30 -4 -30 -10 0 -5 -7
-10 -15 -10 -9 0 -29 -16 -46 -35 -17 -19 -40 -35 -50 -35 -15 0 -19 7 -19 35
0 32 -2 35 -30 35 -16 0 -30 -4 -30 -10 0 -5 -5 -10 -12 -10 -14 0 -78 -60
-78 -73 0 -5 -13 -22 -30 -37 -16 -15 -30 -35 -30 -44 0 -9 -4 -16 -10 -16 -5
0 -10 -7 -10 -15 0 -8 -4 -15 -10 -15 -5 0 -10 9 -10 20 0 26 39 110 51 110 5
0 9 4 9 10 0 14 125 140 139 140 6 0 11 4 11 8 0 7 63 42 75 42 3 0 5 -11 5
-25 0 -14 -4 -25 -10 -25 -5 0 -10 -13 -10 -30 0 -27 3 -30 30 -30 17 0 30 5
30 10 0 6 6 10 13 10 7 0 19 9 27 20 26 36 67 26 122 -30 27 -28 58 -50 70
-50 18 0 71 46 80 69 7 20 81 59 123 65 49 8 64 31 50 78 -4 13 -9 31 -11 41
-4 13 1 17 20 17 14 0 26 -4 26 -10z m-2745 -250 c3 -5 18 -10 33 -10 39 0
132 -51 132 -72 0 -10 5 -18 10 -18 6 0 10 -9 10 -20 0 -11 -4 -20 -10 -20 -5
0 -10 5 -10 10 0 6 -9 10 -20 10 -11 0 -20 5 -20 10 0 6 -9 10 -20 10 -11 0
-20 5 -20 10 0 6 -40 10 -100 10 -60 0 -100 -4 -100 -10 0 -5 -8 -10 -18 -10
-10 0 -24 -9 -32 -20 -8 -11 -21 -20 -29 -20 -7 0 -21 -8 -30 -18 -9 -9 -34
-31 -56 -47 -55 -40 -65 -51 -65 -69 0 -9 -4 -16 -10 -16 -5 0 -10 13 -10 28
0 30 20 82 33 82 4 0 7 9 7 20 0 11 5 20 10 20 6 0 10 7 10 15 0 22 91 115
112 115 10 0 18 5 18 10 0 6 35 10 84 10 47 0 88 -4 91 -10z m2845 -110 c0 -5
9 -10 20 -10 11 0 20 -4 20 -8 0 -5 20 -30 45 -55 25 -26 45 -50 45 -53 0 -3
10 -16 23 -29 34 -37 47 -54 47 -61 0 -3 14 -19 30 -34 17 -15 30 -34 30 -42
0 -7 9 -20 20 -28 11 -8 20 -22 20 -32 0 -10 4 -18 9 -18 10 0 61 -96 61 -116
0 -8 5 -14 10 -14 15 0 12 -66 -4 -79 -8 -7 -27 -13 -43 -13 -32 -1 -131 30
-139 43 -3 5 -14 9 -25 9 -10 0 -19 5 -19 10 0 6 -13 10 -30 10 -16 0 -30 5
-30 10 0 22 -88 5 -110 -21 -9 -11 -64 -35 -110 -48 -25 -7 -55 -17 -68 -22
-13 -5 -36 -9 -52 -9 -16 0 -32 -4 -35 -10 -3 -5 -21 -10 -38 -10 -21 0 -38
-7 -47 -20 -8 -11 -20 -20 -28 -20 -13 0 -42 -23 -42 -35 0 -11 -56 -91 -85
-120 -42 -43 -122 -85 -159 -85 -22 0 -39 8 -54 25 -20 23 -22 36 -22 150 0
77 4 125 10 125 6 0 10 32 10 75 0 43 4 75 10 75 6 0 10 15 10 34 0 19 5 38
10 41 6 3 10 22 10 41 0 19 5 34 10 34 6 0 10 14 10 30 0 17 5 30 10 30 6 0
10 9 10 20 0 29 23 67 69 117 21 22 30 25 70 19 25 -3 50 -11 55 -16 6 -6 18
-10 28 -10 10 0 18 -4 18 -10 0 -6 28 -10 64 -10 36 0 68 5 71 10 3 6 17 10
31 10 13 0 24 5 24 10 0 6 8 10 18 10 10 0 29 11 42 25 13 14 28 25 35 25 6 0
17 9 25 20 8 12 26 20 42 20 15 0 28 5 28 10 0 6 9 10 20 10 11 0 20 -4 20
-10z m-1420 -150 c0 -16 5 -30 10 -30 6 0 10 -16 10 -35 0 -19 5 -35 10 -35 6
0 10 -4 10 -10 0 -12 -37 -13 -44 -1 -8 12 -99 41 -130 41 -14 0 -28 5 -31 10
-3 6 -31 10 -61 10 -30 0 -54 5 -54 10 0 6 -20 10 -45 10 -25 0 -45 5 -45 10
0 6 11 10 25 10 14 0 25 5 25 10 0 6 14 10 30 10 17 0 30 5 30 10 0 6 50 10
130 10 l130 0 0 -30z m-1244 -132 c3 -4 21 -8 40 -8 19 0 34 -2 34 -4 0 -18
-15 -36 -31 -36 -10 0 -19 -4 -19 -10 0 -5 -9 -10 -20 -10 -11 0 -20 -4 -20
-10 0 -5 -9 -10 -20 -10 -11 0 -20 -4 -20 -10 0 -5 -6 -10 -14 -10 -18 0 -76
-32 -76 -42 0 -5 -9 -8 -20 -8 -11 0 -20 -4 -20 -10 0 -5 -6 -10 -13 -10 -7 0
-23 -9 -35 -20 -12 -11 -25 -20 -30 -20 -5 0 -17 -9 -27 -20 -10 -11 -22 -20
-27 -20 -5 0 -16 -6 -23 -12 -31 -28 -44 -38 -51 -38 -3 0 -19 -14 -35 -31
-16 -18 -33 -29 -36 -25 -4 3 -1 12 5 18 7 7 12 21 12 33 0 11 7 29 15 39 8
11 15 28 15 38 0 10 5 18 10 18 6 0 10 9 10 20 0 11 5 20 10 20 6 0 10 7 10
15 0 8 5 15 10 15 6 0 10 6 10 14 0 8 4 16 9 18 5 2 29 21 53 43 52 48 81 65
108 65 11 0 20 5 20 10 0 13 158 11 166 -2z m2714 -488 c0 -5 9 -10 20 -10 11
0 20 -4 20 -10 0 -5 -15 -10 -34 -10 -19 0 -38 -4 -41 -10 -3 -5 -22 -10 -41
-10 -19 0 -34 -4 -34 -10 0 -5 -18 -10 -40 -10 -22 0 -40 -4 -40 -10 0 -5 -8
-10 -17 -10 -20 0 -95 -25 -125 -41 -10 -5 -18 -6 -18 -1 0 14 58 62 75 62 8
0 15 5 15 10 0 6 9 10 20 10 11 0 20 3 20 8 0 12 52 32 82 32 15 0 28 5 28 10
0 6 25 10 55 10 30 0 55 -4 55 -10z m-1810 -40 c0 -5 -11 -10 -25 -10 -25 0
-33 -14 -15 -25 6 -3 10 -17 10 -30 0 -13 -4 -27 -10 -30 -5 -3 -10 -13 -10
-21 0 -26 -27 -44 -64 -44 -20 0 -36 -4 -36 -10 0 -5 -9 -10 -20 -10 -34 0
-110 -55 -110 -80 0 -5 -19 -10 -43 -10 -43 0 -54 6 -120 62 -18 15 -42 28
-54 28 -13 0 -23 5 -23 10 0 6 11 10 25 10 14 0 25 5 25 10 0 18 31 10 55 -15
14 -13 25 -30 25 -38 0 -14 40 -37 66 -37 17 0 84 64 84 80 0 6 7 18 16 27 13
13 19 14 40 3 19 -11 27 -11 36 -2 7 7 20 12 31 12 32 0 47 25 47 79 l0 51 35
0 c19 0 35 -4 35 -10z m400 -275 c0 -19 -4 -35 -10 -35 -5 0 -10 -18 -10 -40
0 -22 -4 -40 -10 -40 -5 0 -10 -16 -10 -35 0 -19 -4 -35 -10 -35 -5 0 -10 -11
-10 -25 0 -14 -4 -33 -9 -43 -21 -41 -41 -94 -41 -106 0 -17 -42 -100 -52
-104 -5 -2 -8 -11 -8 -21 0 -9 -9 -23 -20 -31 -11 -8 -20 -22 -20 -32 0 -10
-4 -18 -10 -18 -5 0 -10 -6 -10 -13 0 -7 -11 -24 -25 -39 -14 -15 -25 -32 -25
-38 0 -16 -198 -210 -215 -210 -8 0 -15 -4 -15 -8 0 -5 -36 -14 -80 -21 -66
-11 -94 -11 -160 0 -44 7 -80 16 -80 21 0 4 -9 8 -20 8 -11 0 -20 3 -20 8 0 4
-14 13 -32 21 -17 8 -41 22 -52 32 -12 10 -32 27 -45 38 -13 12 -28 21 -33 21
-4 0 -8 5 -8 10 0 6 -10 22 -22 35 -37 38 -43 48 -58 83 -8 17 -18 32 -22 32
-5 0 -8 9 -8 20 0 11 -4 20 -10 20 -5 0 -10 12 -10 26 0 15 -8 34 -18 43 -30
28 -72 89 -72 105 0 9 -4 16 -10 16 -5 0 -10 9 -10 20 0 11 -4 20 -8 20 -5 0
-14 16 -22 35 -8 19 -17 35 -22 35 -4 0 -8 13 -8 28 0 16 -8 34 -20 42 -11 8
-20 21 -20 30 0 8 -7 24 -15 34 -8 11 -15 28 -15 38 0 19 25 25 35 8 3 -5 17
-10 31 -10 13 0 24 -4 24 -10 0 -5 7 -10 14 -10 8 0 36 -11 62 -25 26 -14 53
-25 60 -25 8 0 14 -4 14 -10 0 -5 9 -10 20 -10 11 0 20 -4 20 -10 0 -5 11 -10
24 -10 14 0 28 -4 31 -10 3 -5 22 -10 41 -10 19 0 34 -4 34 -10 0 -6 32 -10
75 -10 43 0 75 -4 75 -10 0 -6 43 -10 109 -10 63 0 112 4 116 10 3 6 31 10 61
10 30 0 54 5 54 10 0 6 18 10 40 10 22 0 40 5 40 10 0 6 11 10 25 10 14 0 25
5 25 10 0 6 14 10 30 10 17 0 30 5 30 10 0 6 6 10 14 10 8 0 34 11 57 25 24
14 51 25 59 25 9 0 22 9 30 20 8 11 21 20 30 20 9 0 22 9 30 20 8 11 18 20 23
20 8 0 28 15 50 37 20 20 27 15 27 -22z"/>
</g>
</svg>
