<svg id="elUVIgcqHsG1" xmlns="http://www.w3.org/2000/svg" xmlns:xlink="http://www.w3.org/1999/xlink" viewBox="0 0 256 373" shape-rendering="geometricPrecision" text-rendering="geometricPrecision"><defs><path id="elUVIgcqHsG2" d="M180.827640,252.605272C184.843951,254.170159,189.424060,254.069552,193.478224,252.119170L245.979142,226.856851C251.495593,224.202221,255.003889,218.618034,255.003889,212.492960L255.003889,41.197184C255.003889,35.071911,251.495593,29.488621,245.979142,26.833991L193.478224,1.570686C188.158006,-0.989257,181.931329,-0.362230,177.262566,3.032346C176.595173,3.517272,175.959655,4.058697,175.363982,4.655366L74.856589,96.349844L31.077800,63.118156C27.002420,60.024640,21.302087,60.278050,17.517072,63.721100L3.475781,76.493707C-1.154024,80.705256,-1.159333,87.988904,3.464315,92.207227L41.430759,126.844525L3.464315,161.482221C-1.159333,165.700742,-1.154024,172.984291,3.475781,177.195840L17.517072,189.967949C21.302087,193.411497,27.002420,193.664509,31.077800,190.571591L74.856589,157.339404L175.363982,249.034221C176.953772,250.625007,178.820480,251.823326,180.827640,252.605272ZM191.291764,68.955952L115.029663,126.844525L191.291764,184.733396L191.291764,68.955952Z"/><linearGradient id="elUVIgcqHsG10-fill" x1="0.500000" y1="0" x2="0.500000" y2="0.999999" spreadMethod="pad" gradientUnits="objectBoundingBox"><stop id="elUVIgcqHsG10-fill-0" offset="0%" stop-color="rgb(255,255,255)"/><stop id="elUVIgcqHsG10-fill-1" offset="100%" stop-color="rgba(255,255,255,0)"/></linearGradient></defs><g id="elUVIgcqHsG3" transform="matrix(1 0 0 1 0.42073082999994 59.64740753000000)"><g id="elUVIgcqHsG4" mask="url(#elUVIgcqHsG5)"><mask id="elUVIgcqHsG5" mask-type="luminance"><use id="elUVIgcqHsG6" width="255.003891" height="253.689468" xlink:href="#elUVIgcqHsG2" fill="rgb(255,255,255)" stroke="none" stroke-width="1"/></mask><path id="elUVIgcqHsG7" d="M246.134784,26.873337L193.593025,1.575238C187.511780,-1.353006,180.243173,-0.117808,175.469819,4.655147L3.466417,161.482221C-1.160041,165.700742,-1.154721,172.984291,3.477892,177.195840L17.527680,189.967949C21.315086,193.411497,27.018905,193.664509,31.096677,190.571591L238.228667,33.436301C245.177523,28.164693,255.158535,33.120932,255.158535,41.843261L255.158535,41.233244C255.158535,35.110660,251.651235,29.529362,246.134784,26.873337Z" fill="rgb(0,0,0)" stroke="none" stroke-width="1"/><path id="elUVIgcqHsG8" d="M246.134784,226.816011L193.593025,252.114190C187.511780,255.041754,180.243173,253.806579,175.469819,249.034221L3.466417,92.207027C-1.160041,87.988805,-1.154721,80.704957,3.477892,76.493508L17.527680,63.720901C21.315086,60.277851,27.018905,60.024341,31.096677,63.117956L238.228667,220.252649C245.177523,225.524058,255.158535,220.568416,255.158535,211.845490L255.158535,212.456104C255.158535,218.578190,251.651235,224.159388,246.134784,226.816011Z" fill="rgb(0,0,0)" stroke="none" stroke-width="1"/><path id="elUVIgcqHsG9" d="M193.428324,252.134497C187.345086,255.060069,180.076479,253.823898,175.303125,249.050544C181.184153,254.931571,191.240868,250.765843,191.240868,242.448334L191.240868,11.272962C191.240868,2.955423,181.184153,-1.210051,175.303125,4.671360C180.076479,-0.102038,187.345086,-1.338979,193.428324,1.586679L245.961117,26.850014C251.481553,29.504645,254.991841,35.087935,254.991841,41.213208L254.991841,212.509283C254.991841,218.634357,251.481553,224.217548,245.961117,226.872178L193.428324,252.134497Z" fill="rgb(0,0,0)" stroke="none" stroke-width="1"/><path id="elUVIgcqHsG10" d="M180.827889,252.605272C184.844200,254.169163,189.424309,254.069552,193.477476,252.119170L245.978395,226.855855C251.495842,224.201225,255.004138,218.618034,255.004138,212.492960L255.004138,41.196985C255.004138,35.071712,251.495842,29.488422,245.979391,26.833792L193.477476,1.570526C188.158255,-0.989423,181.931578,-0.362396,177.261819,3.032177C176.595422,3.517102,175.959904,4.058527,175.363235,4.655197L74.856539,96.349645L31.077750,63.117956C27.002470,60.024440,21.302037,60.277950,17.517022,63.720901L3.475781,76.493508C-1.154024,80.705057,-1.159333,87.988805,3.464315,92.207127L41.430809,126.844525L3.464315,161.482221C-1.159333,165.700742,-1.154024,172.984291,3.475781,177.195840L17.517022,189.967949C21.302037,193.411497,27.002470,193.664509,31.077750,190.571591L74.856539,157.339404L175.363235,249.034221C176.953025,250.625007,178.820729,251.823326,180.827889,252.605272ZM191.292013,68.955753L115.029912,126.844525L191.292013,184.733396L191.292013,68.955753Z" fill="url(#elUVIgcqHsG10-fill)" fill-opacity="0.25" stroke="none" stroke-width="1"/></g></g></svg>