<svg id="eeUjHBVLrI91" xmlns="http://www.w3.org/2000/svg" xmlns:xlink="http://www.w3.org/1999/xlink" viewBox="0 0 256 373" shape-rendering="geometricPrecision" text-rendering="geometricPrecision"><g id="eeUjHBVLrI92" transform="matrix(1 0 0 1 -0.00000000000006 58.50000000000000)"><path id="eeUjHBVLrI93" d="M128,0C57.328185,0,0,57.328185,0,128C0,198.671815,57.328185,256,128,256C198.671815,256,256,198.671815,256,128C256,57.328185,198.671815,0,128,0" fill="rgb(0,0,0)" stroke="none" stroke-width="1"/><path id="eeUjHBVLrI94" d="M203.317375,174.060232C195.410039,175.938224,191.406950,177.667954,181.621622,184.043243C166.350579,193.927413,149.646332,198.523552,149.646332,198.523552C149.646332,198.523552,148.262548,200.599228,144.259459,201.538224C137.340541,203.218533,111.295753,204.651737,108.923552,204.701158C102.548263,204.750579,98.644015,203.070270,97.556757,200.450965C94.245560,192.543629,102.301158,189.084170,102.301158,189.084170C102.301158,189.084170,100.522008,187.996911,99.484170,187.008494C98.545174,186.069498,97.556757,184.191506,97.260232,184.883398C96.024710,187.898069,95.382239,195.261776,92.071043,198.572973C87.524324,203.169112,78.925096,201.637066,73.834749,198.968340C68.250193,196.003089,74.230116,189.034749,74.230116,189.034749C74.230116,189.034749,71.215444,190.813900,68.793822,187.156757C66.619305,183.796139,64.593050,178.063320,65.136679,170.996139C65.729730,162.940541,74.724324,155.132046,74.724324,155.132046C74.724324,155.132046,73.142857,143.221622,78.332046,131.014672C83.027027,119.894981,95.678764,110.949807,95.678764,110.949807C95.678764,110.949807,85.053282,99.187645,89.006950,88.611583C91.576834,81.692664,92.614672,81.742085,93.454826,81.445560C96.420077,80.308880,99.286486,79.073359,101.411583,76.750579C112.037066,65.284942,125.578378,67.459459,125.578378,67.459459C125.578378,67.459459,132.003089,47.938224,137.933591,51.743629C139.762162,52.929730,146.335135,67.558301,146.335135,67.558301C146.335135,67.558301,153.352896,63.456371,154.143629,64.988417C158.393822,73.241699,158.888031,89.006950,157.010039,98.594595C153.847104,114.409266,145.939768,122.909653,142.776834,128.247104C142.035521,129.482625,151.277220,133.386873,157.108880,149.547490C162.495753,164.324324,157.701931,176.728958,158.542085,178.112741C158.690347,178.359846,158.739768,178.458687,158.739768,178.458687C158.739768,178.458687,164.917375,178.952896,177.322008,171.292664C183.944402,167.190734,191.802317,162.594595,200.747490,162.495753C209.396139,162.347490,209.840927,172.478764,203.317375,174.060232L203.317375,174.060232ZM215.079537,166.795367C214.189961,159.777606,208.259459,154.934363,200.648649,155.033205C189.281853,155.181467,179.743629,161.062548,173.417761,164.966795C170.946718,166.498842,168.821622,167.635521,166.993050,168.475676C167.388417,162.742857,167.042471,155.230888,164.077220,146.977606C160.469498,137.093436,155.626255,131.014672,152.166795,127.505792C156.169884,121.674131,161.655598,113.173745,164.225483,100.027799C166.449421,88.809266,165.757529,71.363707,160.667181,61.578378C159.629344,59.601544,157.899614,58.168340,155.725097,57.575290C154.835521,57.328185,153.155212,56.833977,149.844015,57.772973C144.852510,47.444015,143.122780,46.356757,141.788417,45.467182C139.020849,43.688031,135.759073,43.292664,132.694981,44.429344C128.593050,45.911969,125.084170,49.865637,121.772973,56.883398C121.278764,57.921236,120.833977,58.909652,120.438610,59.898069C114.162162,60.342857,104.277992,62.616216,95.925869,71.660232C94.888031,72.796911,92.861776,73.637066,90.736679,74.427799L90.786100,74.427799C86.437066,75.959846,84.460232,79.518147,82.038610,85.942857C78.677992,94.937452,82.137452,103.783784,85.547490,109.516602C80.901931,113.667954,74.724324,120.290347,71.462548,128.049421C67.410039,137.637066,66.965251,147.027027,67.113513,152.117375C63.654054,155.774517,58.316602,162.644015,57.723552,170.353668C56.932819,181.127413,60.837066,188.441699,62.566795,191.110425C63.061004,191.901158,63.604633,192.543629,64.197683,193.186100C64,194.520463,63.950579,195.953668,64.247104,197.436293C64.889575,200.895753,67.064093,203.712741,70.375290,205.491892C76.898842,208.951351,85.992278,210.433977,93.010039,206.925097C95.530502,209.593822,100.126641,212.163707,108.478764,212.163707L108.972973,212.163707C111.098069,212.163707,138.081853,210.730502,145.939768,208.803089C149.448649,207.962934,151.870270,206.480309,153.451737,205.145946C158.492664,203.564479,172.429344,198.820077,185.575290,190.319691C194.866409,184.290347,198.078764,183.005405,204.997683,181.325097C211.718919,179.694208,215.919691,173.566023,215.079537,166.795367L215.079537,166.795367Z" fill="rgb(255,255,255)" stroke="none" stroke-width="1"/></g></svg>