<svg id="euyDO3J7Cqa1" xmlns="http://www.w3.org/2000/svg" xmlns:xlink="http://www.w3.org/1999/xlink" viewBox="0 0 256 373" shape-rendering="geometricPrecision" text-rendering="geometricPrecision"><g id="euyDO3J7Cqa2" transform="matrix(1 0 0 1 -0.00000000000006 58.50000000000000)"><rect id="euyDO3J7Cqa3" width="256" height="256" rx="28" ry="28" fill="rgb(0,0,0)" stroke="none" stroke-width="1"/><path id="euyDO3J7Cqa4" d="M186.377012,94.197636L186.377012,160.424478C186.377012,183.243286,184.707519,194.187745,179.699037,203.649406C175.060358,212.741266,168.937684,218.490548,156.323731,224.798721L129.794937,212.183571C142.410087,206.247593,148.531564,201.054810,152.427049,193.074749C156.509231,184.912780,157.808923,175.451119,157.808923,150.593015L157.808923,94.197636L186.377012,94.197636ZM140.928486,50.078721L140.928486,182.316986C126.272844,185.099476,115.512688,186.212472,103.826231,186.212472C68.948772,186.212472,50.768643,170.445031,50.768643,140.205054C50.768643,111.079269,70.062964,92.158340,99.929549,92.158340C104.567032,92.158340,108.091519,92.528142,112.359199,93.641138L112.359199,50.078721L140.928486,50.078721ZM102.713236,115.160254C88.243093,115.160254,79.894428,124.065418,79.894428,139.647359C79.894428,154.860696,87.872094,163.208164,102.527736,163.208164C105.680028,163.208164,108.278215,163.022665,112.359199,162.467364L112.359199,116.643052C109.020212,115.531253,106.237722,115.160254,102.713236,115.160254ZM186.377012,50.230711L186.377012,79.541994L157.808923,79.541994L157.808923,50.230711L186.377012,50.230711Z" fill="rgb(255,255,253)" stroke="none" stroke-width="1"/></g></svg>