<svg id="ekp6CmKdsZh1" xmlns="http://www.w3.org/2000/svg" xmlns:xlink="http://www.w3.org/1999/xlink" viewBox="0 0 256 373" shape-rendering="geometricPrecision" text-rendering="geometricPrecision"><defs><linearGradient id="ekp6CmKdsZh3-fill" x1="0.129594" y1="0.120394" x2="0.796388" y2="0.782009" spreadMethod="pad" gradientUnits="objectBoundingBox"><stop id="ekp6CmKdsZh3-fill-0" offset="0%" stop-color="rgb(0,0,0)"/><stop id="ekp6CmKdsZh3-fill-1" offset="100%" stop-color="rgb(89,89,89)"/></linearGradient><linearGradient id="ekp6CmKdsZh4-fill" x1="0.191275" y1="0.205792" x2="0.907415" y2="0.884290" spreadMethod="pad" gradientUnits="objectBoundingBox"><stop id="ekp6CmKdsZh4-fill-0" offset="0%" stop-color="rgb(92,92,92)"/><stop id="ekp6CmKdsZh4-fill-1" offset="100%" stop-color="rgb(2,2,2)"/></linearGradient></defs><g id="ekp6CmKdsZh2" transform="matrix(1 0 0 1 0.16351633999994 59.40073120000001)"><path id="ekp6CmKdsZh3" d="M126.915866,0.072276C62.083583,0.072280,66.132129,28.187465,66.132129,28.187465L66.204404,57.314512L128.072276,57.314512L128.072276,66.059853L41.630717,66.059853C41.630717,66.059853,0.144551,61.354944,0.144551,126.771315C0.144546,192.187673,36.354602,189.867871,36.354602,189.867871L57.964991,189.867871L57.964991,159.512140C57.964991,159.512140,56.800136,123.302089,93.596838,123.302089L154.958780,123.302089C154.958780,123.302089,189.434218,123.859386,189.434218,89.983060L189.434218,33.969509C189.434218,33.969504,194.668541,0.072276,126.915866,0.072276L126.915866,0.072276L126.915866,0.072276ZM92.801807,19.658950C98.957207,19.658945,103.932242,24.633985,103.932242,30.789385C103.932246,36.944784,98.957207,41.919819,92.801807,41.919819C86.646407,41.919824,81.671372,36.944784,81.671372,30.789385C81.671367,24.633985,86.646407,19.658950,92.801807,19.658950L92.801807,19.658950L92.801807,19.658950Z" fill="url(#ekp6CmKdsZh3-fill)" stroke="none" stroke-width="1"/><path id="ekp6CmKdsZh4" d="M128.757101,254.126271C193.589403,254.126271,189.540839,226.011081,189.540839,226.011081L189.468564,196.884035L127.600692,196.884035L127.600692,188.138693L214.042251,188.138693C214.042251,188.138693,255.528417,192.843589,255.528417,127.427208C255.528440,62.010857,219.318366,64.330659,219.318366,64.330659L197.707976,64.330659L197.707976,94.686383C197.707976,94.686383,198.872850,130.896434,162.076130,130.896434L100.714182,130.896434C100.714182,130.896434,66.238745,130.339138,66.238745,164.215486L66.238745,220.229038C66.238745,220.229038,61.004422,254.126271,128.757101,254.126271L128.757101,254.126271L128.757101,254.126271ZM162.871160,234.539597C156.715759,234.539597,151.740726,229.564564,151.740726,223.409162C151.740726,217.253759,156.715759,212.278727,162.871160,212.278727C169.026563,212.278727,174.001595,217.253759,174.001595,223.409162C174.001618,229.564564,169.026563,234.539597,162.871160,234.539597L162.871160,234.539597L162.871160,234.539597Z" fill="url(#ekp6CmKdsZh4-fill)" stroke="none" stroke-width="1"/></g></svg>