<svg id="ezPSHOfrUox1" xmlns="http://www.w3.org/2000/svg" xmlns:xlink="http://www.w3.org/1999/xlink" viewBox="0 0 200 275" shape-rendering="geometricPrecision" text-rendering="geometricPrecision"><g id="ezPSHOfrUox2" transform="matrix(1 0 0 1 -32.73785974784923 -18.27864568207835)"><g id="ezPSHOfrUox3"><path id="ezPSHOfrUox4" d="M303.710000,266.850000C280.625864,266.779161,260.972226,250.038896,257.230000,227.260000L257.230000,100.150000C257.153114,73.942865,235.927135,52.716886,209.720000,52.640000L191.410000,52.640000C165.202865,52.716886,143.976886,73.942865,143.900000,100.150000L143.900000,271.450000C143.993181,295.065651,163.114349,314.186819,186.730000,314.280000L262.130000,314.280000C285.745651,314.186819,304.866819,295.065651,304.960000,271.450000L304.960000,266.840000Z" transform="matrix(1 0 0 1 -79.25425400000000 -32.77656099999999)" fill="rgb(73,29,24)" stroke="none" stroke-width="1"/><path id="ezPSHOfrUox5" d="M280.430000,277C262.892768,276.956740,246.910838,266.930688,239.240000,251.160000L239.240000,100.590000C239.240000,83.844726,225.665274,70.270000,208.920000,70.270000L192.220000,70.270000C175.474726,70.270000,161.900000,83.844726,161.900000,100.590000L161.900000,266C161.905056,278.922893,170.097859,290.423324,182.310000,294.650000L182.310000,294.650000C182.310000,310.395638,195.074362,323.160000,210.820000,323.160000L240,323.160000C262.980826,323.094089,281.594089,304.480826,281.660000,281.500000L281.660000,277Z" transform="matrix(1 0 0 1 -79.25425400000000 -32.77656099999999)" fill="rgb(73,29,24)" stroke="none" stroke-width="1"/><rect id="ezPSHOfrUox6" width="22.110000" height="22.110000" rx="7.790000" ry="7.790000" transform="matrix(1 0 0 1 110.25574599999999 44.80343900000001)" fill="rgb(0,0,0)" stroke="none" stroke-width="1"/></g><g id="ezPSHOfrUox7"><path id="ezPSHOfrUox8" d="M174.250000,246.530000L174.250000,266.620000C174.227218,271.284180,172.555266,275.789949,169.530000,279.340000C178.733861,284.352790,189.049592,286.972985,199.530000,286.960000L200.280000,286.960000C210.760355,286.972558,221.075981,284.352389,230.280000,279.340000C227.254734,275.789949,225.582782,271.284180,225.560000,266.620000L225.560000,246.530000Z" transform="matrix(1 0 0 1 -79.25425400000000 -32.77656099999999)" fill="rgb(227,165,126)" stroke="none" stroke-width="1"/></g><g id="ezPSHOfrUox9"><circle id="ezPSHOfrUox10" r="19.500000" transform="matrix(1 0 0 1 182.86574600000000 162.49343900000002)" fill="rgb(247,194,153)" stroke="none" stroke-width="1"/><circle id="ezPSHOfrUox11" r="19.500000" transform="matrix(1 0 0 1 58.36574600000000 162.49343900000002)" fill="rgb(247,194,153)" stroke="none" stroke-width="1"/><path id="ezPSHOfrUox12" d="M197,100.180000L204.140000,100.180000C220.031772,100.180000,235.272659,106.492982,246.509838,117.730162C257.747018,128.967341,264.060000,144.208228,264.060000,160.100000L264.060000,201.370000C264.060000,236.230213,235.800213,264.490000,200.940000,264.490000L200.190000,264.490000C183.449535,264.490000,167.394716,257.839876,155.557420,246.002580C143.720124,234.165284,137.070000,218.110465,137.070000,201.370000L137.070000,160.110000C137.067347,144.214763,143.380531,128.969791,154.620161,117.730161C165.859791,106.490531,181.104763,100.177347,197,100.180000Z" transform="matrix(1 0 0 1 -79.25425400000000 -32.77656099999999)" fill="rgb(247,194,153)" stroke="none" stroke-width="1"/><path id="ezPSHOfrUox13" d="M184.580000,219.310000L184.580000,219.600000C184.580000,226.890000,190.370000,233.420000,198.420000,234.380000C208.160000,235.540000,216.560000,228.680000,216.560000,220.140000L216.560000,219.310000C216.430943,217.049255,214.501574,215.316396,212.240000,215.430000L188.900000,215.430000C186.638426,215.316396,184.709057,217.049255,184.580000,219.310000Z" transform="matrix(1 0 0 1 -79.25425400000000 -32.77656099999999)" fill="rgb(255,255,255)" stroke="none" stroke-width="1"/><path id="ezPSHOfrUox14" d="M207.230000,205.130000C205.850695,202.789844,203.355792,201.333113,200.639874,201.282139C197.923955,201.231164,195.376147,202.593249,193.910000,204.880000" transform="matrix(1 0 0 1 -79.25425400000000 -32.77656099999999)" fill="none" stroke="rgb(207,148,109)" stroke-width="4" stroke-linecap="round" stroke-miterlimit="10"/><g id="ezPSHOfrUox15"><ellipse id="ezPSHOfrUox16" rx="6.880000" ry="7.430000" transform="matrix(1 0 0 1 89.11574600000000 157.33343900000003)" fill="rgb(0,0,0)" stroke="none" stroke-width="1"/><ellipse id="ezPSHOfrUox17" rx="6.880000" ry="7.430000" transform="matrix(1 0 0 1 152.12574599999999 157.33343900000003)" fill="rgb(0,0,0)" stroke="none" stroke-width="1"/></g><g id="ezPSHOfrUox18"><line id="ezPSHOfrUox19" x1="219.710000" y1="158.350000" x2="243.040000" y2="158.350000" transform="matrix(1 0 0 1 -79.25425400000000 -32.77656099999999)" fill="none" stroke="rgb(97,39,31)" stroke-width="8" stroke-linecap="round" stroke-miterlimit="10"/><line id="ezPSHOfrUox20" x1="156.710000" y1="158.350000" x2="180.030000" y2="158.350000" transform="matrix(1 0 0 1 -79.25425400000000 -32.77656099999999)" fill="none" stroke="rgb(97,39,31)" stroke-width="8" stroke-linecap="round" stroke-miterlimit="10"/></g><g id="ezPSHOfrUox21"><path id="ezPSHOfrUox22" d="M268,162.850000L268,149.580000C268,115.920000,238.850000,88.640000,202.880000,88.640000L197.540000,88.640000C161.540000,88.640000,132.420000,115.920000,132.420000,149.580000L132.420000,191.640000L132.420000,191.640000L132.420000,192.890000C132.430956,195.453572,134.506428,197.529044,137.070000,197.540000L137.150000,197.540000C139.713572,197.529044,141.789044,195.453572,141.800000,192.890000L141.800000,168.890000C141.794259,149.638525,151.761875,131.758120,168.140000,121.640000L233,121.640000C249.378125,131.758120,259.345741,149.638525,259.340000,168.890000L259.340000,191.640000L259.340000,191.640000L259.340000,193.640000C259.345496,195.791630,261.088370,197.534504,263.240000,197.540000L264.080000,197.540000C266.231630,197.534504,267.974504,195.791630,267.980000,193.640000L267.980000,162.850000Z" transform="matrix(1 0 0 1 -79.25425400000000 -32.77656099999999)" fill="rgb(98,42,35)" stroke="none" stroke-width="1"/><path id="ezPSHOfrUox23" d="M230.060000,102.510000C230.433651,103.169053,230.633261,103.912425,230.640000,104.670000L230.640000,114.720000" transform="matrix(1 0 0 1 -79.25425400000000 -32.77656099999999)" fill="none" stroke="rgb(73,29,24)" stroke-width="7" stroke-linecap="round" stroke-miterlimit="10"/><path id="ezPSHOfrUox24" d="M182.590000,114.720000L182.590000,100.870000C182.728243,99.465272,183.536474,98.213816,184.760000,97.510000" transform="matrix(1 0 0 1 -79.25425400000000 -32.77656099999999)" fill="none" stroke="rgb(73,29,24)" stroke-width="7" stroke-linecap="round" stroke-miterlimit="10"/><line id="ezPSHOfrUox25" x1="196.700000" y1="114.720000" x2="196.700000" y2="108.390000" transform="matrix(1 0 0 1 -79.25425400000000 -32.77656099999999)" fill="none" stroke="rgb(73,29,24)" stroke-width="7" stroke-linecap="round" stroke-miterlimit="10"/></g></g></g></svg>